<svg width="237" height="130" viewBox="0 0 237 130" fill="none" xmlns="http://www.w3.org/2000/svg">
<g clip-path="url(#clip0)">
<path d="M236.5 121.869C236.5 114.774 232.933 109.022 228.534 109.022C225.768 109.022 223.333 111.295 221.904 114.745C221.422 114.543 220.904 114.438 220.382 114.437C219.05 114.437 217.819 115.126 216.815 116.291C215.527 111.99 212.797 109.022 209.636 109.022C206.682 109.022 204.104 111.618 202.729 115.472C201.965 114.821 201.002 114.455 200.003 114.437C196.626 114.437 193.889 118.851 193.889 124.296C193.875 126.112 194.202 127.913 194.852 129.606H234.893C235.901 127.454 236.5 124.775 236.5 121.869Z" fill="#54A874"/>
<path d="M207.939 47.6799C201.666 33.9799 189.388 22.2926 174.556 20.3878C170.634 19.8841 166.54 20.0861 162.901 21.6464C158.125 23.6944 154.605 27.8283 151.048 31.6417C143.515 39.7136 135.086 46.882 125.927 53.0049C121.406 56.0261 116.558 58.8449 111.19 59.6178C100.429 61.1677 89.7853 53.7599 84.8777 43.9691C81.812 37.853 80.3953 30.6722 77.9171 24.3106C75.0629 24.3051 71.6625 24.3062 68.004 24.3232C57.8917 24.3702 49.6607 24.5211 49.6607 24.5211C49.6607 24.5211 59.4445 11.4387 67.9673 16.2856C70.691 17.8346 73.5437 19.2168 76.1654 20.3812C74.676 17.4891 72.7973 14.887 70.2128 12.7948C65.1167 8.6694 58.2146 7.51224 51.6893 7.81946C44.8373 8.14208 37.9222 9.99391 32.3544 14.0383C22.4357 21.2431 18.3397 33.9248 14.8341 45.7416L23.3077 50.0297C26.9424 46.8577 32.2573 43.7199 37.1562 46.5059C45.679 51.3529 55.4695 54.571 55.4695 54.571C55.4695 54.571 47.3052 54.4965 37.1929 54.5435C35.4945 54.5514 33.8512 54.5623 32.2891 54.5748L126.367 102.184C157.396 102.625 180.793 100.931 210.278 102.184C211.815 102.249 215.274 94.1119 215.286 91.9705C215.367 76.8777 214.213 61.38 207.939 47.6799ZM177.81 51.7862C167.697 51.8332 159.466 51.984 159.466 51.984C159.466 51.984 169.25 38.9017 177.773 43.7486C186.296 48.5955 196.086 51.8137 196.086 51.8137C196.086 51.8137 187.922 51.7391 177.81 51.7862L177.81 51.7862Z" fill="#F2F2F2"/>
<path opacity="0.3" d="M204.159 96.5587C204.159 91.3995 200.995 87.2172 197.092 87.2172C194.638 87.2172 192.477 88.87 191.21 91.3785C190.775 91.2303 190.319 91.1546 189.86 91.1543C188.672 91.1746 187.538 91.6578 186.695 92.5028C185.553 89.3751 183.13 87.2172 180.326 87.2172C177.705 87.2172 175.419 89.1051 174.198 91.9069C173.483 91.4219 172.642 91.1602 171.78 91.1543C168.784 91.1543 166.356 94.364 166.356 98.3234C166.347 99.6589 166.639 100.979 167.21 102.184H202.734C203.686 100.466 204.178 98.527 204.159 96.5587V96.5587Z" fill="#54A874"/>
<path d="M236.5 129.977H18.4186V129.536H236.282L236.5 129.977Z" fill="#2F2E41"/>
<path d="M218.582 102.625H0.5V102.184H218.363L218.582 102.625Z" fill="#2F2E41"/>
<path d="M93.0709 62.0148C93.0709 62.0148 94.4444 51.8472 96.7336 54.6202C99.0227 57.3932 96.7336 61.5526 96.7336 61.5526L94.9022 63.8635L93.0709 62.477V62.0148Z" fill="#FFB8B8"/>
<path d="M87.5769 65.25C87.5769 65.25 92.1552 60.1662 93.0708 61.0905C93.9865 62.0148 96.7335 62.477 96.2757 64.3256C95.8178 66.1743 86.2034 72.1824 86.2034 72.1824L87.5769 65.25Z" fill="#54A874"/>
<path opacity="0.1" d="M87.5769 65.25C87.5769 65.25 92.1552 60.1662 93.0708 61.0905C93.9865 62.0148 96.7335 62.477 96.2757 64.3256C95.8178 66.1743 86.2034 72.1824 86.2034 72.1824L87.5769 65.25Z" fill="black"/>
<path d="M61.4805 64.7878V68.4851C61.4805 68.4851 61.0227 76.8041 63.7697 76.3419C66.5166 75.8797 65.1432 68.9473 65.1432 68.9473L64.6853 64.7878H61.4805Z" fill="#FFB8B8"/>
<path d="M62.854 91.5933C62.854 91.5933 58.7335 98.0636 57.36 98.5258C55.9865 98.9879 48.6612 103.147 47.7456 107.307L41.3359 115.626L44.5408 119.785C44.5408 119.785 59.1913 104.072 63.3118 102.685C67.4323 101.299 71.5528 94.3663 71.5528 94.3663L62.854 91.5933Z" fill="#FFB8B8"/>
<path d="M95.3601 80.9635C95.3601 80.9635 104.059 82.35 102.685 87.8959C101.312 93.4419 88.0348 104.996 88.0348 104.996L87.577 107.769L82.5409 108.693L80.2517 106.382L80.7095 104.996C80.7095 104.996 86.2035 99.9122 86.6613 98.0635C87.1192 96.2149 92.1553 88.8203 94.4445 88.3581L91.2396 86.5095L95.3601 80.9635Z" fill="#FFB8B8"/>
<path d="M42.7094 115.626C42.7094 115.626 44.5407 112.853 41.7938 113.315C39.0468 113.777 37.2155 114.239 37.2155 116.088C37.2155 117.937 39.5046 130.877 42.2516 129.953C44.9986 129.028 42.7094 124.869 42.7094 124.869C42.7094 124.869 44.0829 121.172 44.9986 120.71C45.9142 120.247 45.9142 117.937 44.9986 117.937C44.0829 117.937 42.2516 116.55 42.7094 115.626Z" fill="#2F2E41"/>
<path d="M81.6251 105.458C81.6251 105.458 81.6251 103.147 79.7938 105.458C77.9624 107.769 77.0468 109.618 78.8781 111.004C80.7094 112.391 87.1191 115.626 87.1191 115.626C87.1191 115.626 93.9865 117.012 93.0709 113.777C93.0709 113.777 88.4926 111.466 88.4926 109.618C88.4926 107.769 88.4926 104.534 87.1191 105.458C85.7456 106.382 81.6251 106.845 81.6251 105.458Z" fill="#2F2E41"/>
<path d="M72.9263 70.796C72.9263 70.796 66.5167 71.7203 66.9745 80.9635C66.9745 80.9635 58.7335 89.2825 61.0227 92.0554C63.3118 94.8284 68.348 99.9122 70.1793 98.5257C72.0106 97.1392 77.5046 86.5095 77.5046 86.5095C77.5046 86.5095 90.3238 91.1311 92.613 88.8203C94.9022 86.5095 97.1913 80.9635 97.1913 80.9635L85.7455 74.9554L72.9263 70.796Z" fill="#2F2E41"/>
<path d="M90.7817 44.4527C93.8159 44.4527 96.2757 41.9697 96.2757 38.9067C96.2757 35.8438 93.8159 33.3607 90.7817 33.3607C87.7475 33.3607 85.2877 35.8438 85.2877 38.9067C85.2877 41.9697 87.7475 44.4527 90.7817 44.4527Z" fill="#FFB8B8"/>
<path d="M86.6613 39.3689C86.6613 39.3689 83.4564 44.4527 82.5408 44.9149C81.6251 45.377 88.9504 49.9986 88.9504 49.9986C88.9504 49.9986 88.9504 43.9905 91.2396 42.604L86.6613 39.3689Z" fill="#FFB8B8"/>
<path d="M86.2034 44.4527C86.2034 44.4527 78.8781 42.1419 77.5046 45.8392C76.1311 49.5365 72.9263 56.4689 73.3841 61.0906C73.842 65.7122 74.7576 64.7879 73.3841 66.1744C72.0106 67.5608 71.095 66.6365 71.5528 68.4852C72.0106 70.3338 72.4685 70.3338 72.0106 71.2582C71.5528 72.1825 77.5046 75.4176 82.5408 75.8798L87.5769 76.3419C87.5769 76.3419 87.5769 68.023 88.4926 66.1744C89.4082 64.3257 91.2396 60.6284 91.2396 59.2419V55.5734C91.2396 53.1316 90.6083 50.7322 89.4082 48.6122V48.6122C89.4082 48.6122 86.6612 44.4527 86.2034 44.4527Z" fill="#54A874"/>
<path d="M80.7095 46.3013C80.7095 46.3013 63.7697 47.6878 61.9384 52.3095C60.1071 56.9311 59.1914 66.1743 61.0228 66.1743C62.8541 66.1743 65.1432 67.0987 65.6011 66.1743C66.0589 65.25 67.8902 56.0068 68.3481 56.0068C68.8059 56.0068 82.5408 54.6203 82.5408 54.6203C82.5408 54.6203 88.4926 47.2257 80.7095 46.3013Z" fill="#54A874"/>
<path d="M91.0025 37.5318C91.0025 37.5318 92.4604 34.9742 94.2828 37.1957C96.1052 39.4172 99.0699 35.3348 98.6148 34.4637C98.1597 33.5926 96.5525 34.5029 93.7982 33.594C91.0439 32.6851 85.7382 30.8335 84.8496 36.8735C83.961 42.9135 86.0773 42.2803 86.0773 42.2803C86.0773 42.2803 87.0473 36.9282 87.9241 38.4655L88.8008 40.0029L89.5613 40.1918L91.0025 37.5318Z" fill="#2F2E41"/>
<path d="M142.823 23.3795C146.525 23.3795 149.526 20.3501 149.526 16.6132C149.526 12.8762 146.525 9.84683 142.823 9.84683C139.121 9.84683 136.12 12.8762 136.12 16.6132C136.12 20.3501 139.121 23.3795 142.823 23.3795Z" fill="#2F2E41"/>
<path d="M140.68 21.6214C140.68 21.6214 141.027 27.924 140.334 27.924C139.64 27.924 144.669 30.9003 144.669 30.9003L147.791 29.1496V27.0487C147.791 27.0487 143.629 26.5235 145.363 21.9716C147.097 17.4197 140.68 21.6214 140.68 21.6214Z" fill="#9F616A"/>
<path d="M126.112 90.775L125.592 96.0271L127.326 96.5524L128.714 95.1519L129.234 90.775H126.112Z" fill="#9F616A"/>
<path d="M151.086 93.7513L151.953 97.0775L154.381 98.6532L156.983 97.2527L154.035 92.3506L151.086 93.7513Z" fill="#9F616A"/>
<path d="M142.328 24.3351C145.106 24.3351 147.358 22.062 147.358 19.258C147.358 16.454 145.106 14.1809 142.328 14.1809C139.55 14.1809 137.299 16.454 137.299 19.258C137.299 22.062 139.55 24.3351 142.328 24.3351Z" fill="#9F616A"/>
<path d="M139.293 38.2533L138.079 37.7281C138.079 37.7281 135.998 36.5026 135.824 34.0516C135.651 31.6006 137.559 28.4493 137.559 28.4493L140.333 27.5739L143.594 30.2526L143.629 34.5768L139.293 38.2533Z" fill="#9F616A"/>
<path d="M138.079 28.7994L137.385 28.4493C137.385 28.4493 133.917 28.2742 133.57 32.4759C133.223 36.6777 132.009 43.6805 132.009 43.6805C132.009 43.6805 129.234 48.5826 129.407 53.8347L128.02 58.3866C128.02 58.3866 126.112 65.0394 128.367 65.0394C130.621 65.0394 130.448 57.8614 130.448 57.8614C130.448 57.8614 134.61 47.7072 134.957 45.9565C135.304 44.2058 138.252 35.9774 137.385 33.7014C136.518 31.4255 138.079 28.7994 138.079 28.7994Z" fill="#9F616A"/>
<path d="M140.68 39.8289V41.7547C140.68 41.7547 141.895 43.1553 141.374 44.0307C140.854 44.906 140.334 46.6568 140.334 46.6568L142.762 50.5083L150.913 51.2086L152.534 40.2456L140.68 39.8289Z" fill="#9F616A"/>
<path d="M148.311 27.5739L149.699 26.8736C149.699 26.8736 152.647 24.7727 155.075 24.4226L162.533 19.3455L167.389 7.61563C167.389 7.61563 167.215 1.31303 168.603 2.01332C169.99 2.7136 169.817 8.14085 169.817 8.14085C169.817 8.14085 167.215 18.9953 164.961 21.9716C162.706 24.9478 154.555 29.8498 154.555 29.8498C154.555 29.8498 152.3 32.4759 152.474 33.7014C152.647 34.9269 148.311 27.5739 148.311 27.5739Z" fill="#9F616A"/>
<path d="M141.894 46.6568C141.894 46.6568 139.987 45.4313 138.773 47.5321C137.559 49.633 135.304 50.1582 133.917 56.4608C132.529 62.7634 129.234 72.7425 128.367 73.4428C127.5 74.1431 123.858 81.4961 125.939 91.8254H129.407L132.356 76.9443C132.356 76.9443 141.894 65.0393 142.588 60.1373L145.71 78.5199C145.71 78.5199 145.883 85.5228 148.485 88.8492L151.26 95.5019L154.902 93.7512L150.739 76.9443C150.739 76.9443 152.821 59.9622 151.433 55.2353L151.234 49.0382C151.234 49.0382 145.536 49.2828 141.894 46.6568Z" fill="#2F2E41"/>
<path d="M127.326 95.1518H125.245C124.898 95.1518 122.123 97.4277 123.337 98.6532C124.551 99.8788 126.459 102.155 126.459 102.155C126.459 102.155 133.223 103.023 133.396 101.798C133.57 100.572 130.448 97.953 130.448 97.953L129.581 95.1518C129.581 95.1518 127.846 93.226 127.326 95.1518Z" fill="#2F2E41"/>
<path d="M154.902 96.9026C154.902 96.9026 151.954 96.7275 151.433 96.5524C150.913 96.3773 149.872 101.104 151.433 101.454C152.994 101.805 159.411 102.33 159.411 102.33C159.411 102.33 164.441 102.155 164.094 100.754C163.747 99.3536 156.983 96.5524 156.983 96.5524C156.983 96.5524 156.116 94.8017 154.902 96.9026Z" fill="#2F2E41"/>
<path d="M141.201 27.3989L140.334 26.8736L139.293 27.749C139.293 27.749 142.415 29.8499 141.721 31.7757C141.027 33.7015 138.079 37.7281 138.079 37.7281C138.079 37.7281 140.68 40.7043 140.68 41.7548C140.68 41.7548 147.444 39.3038 152.474 41.7548C152.474 41.7548 152.474 38.2533 153.168 37.5531C153.861 36.8528 154.208 34.4018 152.474 32.3009C151.252 30.755 150.15 29.1161 149.179 27.3989L147.444 26.3484L146.551 26.6345C146.551 26.6345 148.311 28.6244 146.577 28.7994C144.843 28.9745 142.068 28.4493 141.201 27.3989Z" fill="#54A874"/>
<path d="M147.722 5.07708C147.133 5.74101 146.326 6.16775 145.449 6.27875C143.934 6.49724 145.125 8.90058 145.125 8.90058C145.125 8.90058 144.692 8.02664 145.558 7.26194C146.423 6.49724 147.722 6.06026 147.722 5.07708Z" fill="#2F2E41"/>
<path d="M144.801 11.2888C145.833 11.2888 146.669 10.4446 146.669 9.40311C146.669 8.36167 145.833 7.51741 144.801 7.51741C143.769 7.51741 142.933 8.36167 142.933 9.40311C142.933 10.4446 143.769 11.2888 144.801 11.2888Z" fill="#2F2E41"/>
<path d="M146.982 11.2599C145.539 10.499 143.056 9.90052 141.737 9.94331L142.071 8.65555C143.238 9.45642 145.708 10.0661 147.315 9.97216L146.982 11.2599Z" fill="#54A874"/>
<path d="M144 11.3733C144 11.3733 141.726 14.3248 137.178 14.9807C132.63 15.6366 136.203 22.8513 136.203 22.8513C136.203 22.8513 134.904 20.2278 137.503 17.9322C140.102 15.6366 144 14.3248 144 11.3733Z" fill="#2F2E41"/>
<path d="M144.174 11.1982C144.174 11.1982 145.473 15.7894 147.422 16.4453C149.372 17.1012 148.397 23.988 145.148 24.6439C145.148 24.6439 147.91 20.8725 146.285 17.921C144.661 14.9695 143.686 12.6739 144.174 11.1982Z" fill="#2F2E41"/>
<path d="M174.76 3.50147H162.793V4.90205H174.76V3.50147Z" fill="#2F2E41"/>
<path d="M174.76 8.40347C175.334 8.40347 175.8 6.52229 175.8 4.20174C175.8 1.88118 175.334 0 174.76 0C174.185 0 173.719 1.88118 173.719 4.20174C173.719 6.52229 174.185 8.40347 174.76 8.40347Z" fill="#2F2E41"/>
<path d="M162.793 8.40347C163.368 8.40347 163.834 6.52229 163.834 4.20174C163.834 1.88118 163.368 0 162.793 0C162.218 0 161.752 1.88118 161.752 4.20174C161.752 6.52229 162.218 8.40347 162.793 8.40347Z" fill="#2F2E41"/>
<path d="M180.83 97.6938H168.863V99.0943H180.83V97.6938Z" fill="#2F2E41"/>
<path d="M180.83 102.596C181.404 102.596 181.87 100.715 181.87 98.394C181.87 96.0734 181.404 94.1923 180.83 94.1923C180.255 94.1923 179.789 96.0734 179.789 98.394C179.789 100.715 180.255 102.596 180.83 102.596Z" fill="#2F2E41"/>
<path d="M168.863 102.596C169.438 102.596 169.904 100.715 169.904 98.394C169.904 96.0734 169.438 94.1923 168.863 94.1923C168.288 94.1923 167.822 96.0734 167.822 98.394C167.822 100.715 168.288 102.596 168.863 102.596Z" fill="#2F2E41"/>
<path opacity="0.3" d="M42.8925 96.5587C42.8925 91.3995 39.7282 87.2172 35.8249 87.2172C33.3715 87.2172 31.2108 88.87 29.9435 91.3785C29.5083 91.2303 29.0522 91.1546 28.5929 91.1543C27.4051 91.1746 26.2711 91.6578 25.4282 92.5028C24.2858 89.3751 21.8635 87.2172 19.0597 87.2172C16.4383 87.2172 14.1519 89.1051 12.9317 91.9069C12.216 91.4219 11.3748 91.1602 10.5128 91.1543C7.51724 91.1543 5.08881 94.364 5.08881 98.3234C5.08004 99.6589 5.37226 100.979 5.94336 102.184H41.4672C42.4197 100.466 42.9111 98.527 42.8925 96.5587V96.5587Z" fill="#54A874"/>
</g>
<defs>
<clipPath id="clip0">
<rect width="236" height="130" fill="white" transform="translate(0.5)"/>
</clipPath>
</defs>
</svg>
