<svg width="237" height="158" viewBox="0 0 237 158" fill="none" xmlns="http://www.w3.org/2000/svg">
<g clip-path="url(#clip0)">
<path opacity="0.1" d="M137.18 26.0415C122.051 25.5131 107.642 20.6338 93.8914 15.2895C80.1405 9.94523 66.5023 4.02331 51.7354 1.19242C42.2267 -0.628604 31.364 -0.884653 23.7112 4.20971C16.3472 9.10948 13.967 17.5694 12.6888 25.4168C11.7261 31.3223 11.1607 37.5392 13.797 43.0658C15.6283 46.9045 18.8791 50.1307 21.1282 53.8076C28.9572 66.5978 23.4265 82.3725 14.9441 94.8636C10.9661 100.722 6.35311 106.312 3.28461 112.549C0.216107 118.787 -1.20343 125.934 1.48202 132.296C4.14493 138.601 10.4847 143.339 17.3551 146.67C31.3087 153.429 47.7512 155.373 63.784 156.471C99.2766 158.899 134.958 157.848 170.544 156.795C183.714 156.406 196.942 156.01 209.896 153.974C217.092 152.844 224.52 151.049 229.743 146.715C236.374 141.215 238.017 131.901 233.574 125.002C226.122 113.432 205.511 110.56 200.306 98.1431C197.438 91.3096 200.383 83.6957 204.55 77.358C213.489 63.7607 228.471 51.8329 229.262 36.2897C229.803 25.6155 222.6 14.9269 211.463 9.86534C199.787 4.57228 183.605 5.23801 174.992 14.0011C166.124 23.0345 150.54 26.5065 137.18 26.0415Z" fill="#54A874"/>
<g opacity="0.5">
<path opacity="0.5" d="M102.638 82.4643L95.7836 82.6057L94.6631 84.144V89.4596L96.0621 90.4387H102.638L104.037 88.9004V83.8634L102.638 82.4643Z" fill="#6C63FF"/>
<path opacity="0.2" d="M102.494 83.3042C102.494 83.3042 96.1993 84.2833 95.6401 83.3042L95.7815 82.6057L102.494 82.4582V83.3042Z" fill="white"/>
<path opacity="0.5" d="M103.197 97.8518L104.315 98.9723V104.298L103.197 105.4C103.197 105.4 99.1409 106.799 96.4821 105.679L95.2223 104.421V99.0952L96.3428 97.8354L103.197 97.8518Z" fill="#6C63FF"/>
<path opacity="0.2" d="M102.916 99.1116C102.916 99.1116 98.0204 100.23 96.3428 99.1116V97.8519H103.197L102.916 99.1116Z" fill="white"/>
<path opacity="0.5" d="M100.538 90.4019V97.9686C100.522 98.2683 100.388 98.5494 100.165 98.7506C99.9428 98.9517 99.6495 99.0565 99.3498 99.042V99.042C99.0501 99.0565 98.7569 98.9517 98.5342 98.7506C98.3116 98.5494 98.1776 98.2683 98.1617 97.9686V90.4019C98.1617 89.7587 98.7763 89.2609 99.4891 89.3347C99.7649 89.3516 100.025 89.47 100.218 89.6671C100.412 89.8641 100.526 90.1259 100.538 90.4019V90.4019Z" fill="#6C63FF"/>
<path opacity="0.5" d="M113.615 82.6814L106.761 82.8207L105.641 84.359V89.6746L107.04 90.6538H113.615L115.014 89.1154V84.0784L113.615 82.6814Z" fill="#6C63FF"/>
<path opacity="0.2" d="M113.474 83.5193C113.474 83.5193 107.179 84.4984 106.62 83.5193L106.759 82.8208L113.474 82.6815V83.5193Z" fill="white"/>
<path opacity="0.5" d="M114.17 98.067L115.288 99.1875V104.513L114.17 105.622C114.17 105.622 110.112 107.021 107.455 105.9L106.196 104.642V99.3268L107.316 98.067H114.17Z" fill="#6C63FF"/>
<path opacity="0.2" d="M113.893 99.3268C113.893 99.3268 108.998 100.445 107.32 99.3268V98.067H114.17L113.893 99.3268Z" fill="white"/>
<path opacity="0.5" d="M111.507 90.6169V98.1837C111.491 98.4832 111.357 98.764 111.134 98.965C110.912 99.1661 110.619 99.271 110.319 99.2571V99.2571C110.019 99.2716 109.726 99.1669 109.503 98.9658C109.28 98.7647 109.145 98.4835 109.129 98.1837V90.6169C109.129 89.9737 109.743 89.476 110.458 89.5497C110.734 89.5666 110.994 89.685 111.187 89.8821C111.381 90.0792 111.495 90.3409 111.507 90.6169V90.6169Z" fill="#6C63FF"/>
<path opacity="0.5" d="M127.589 86.7271L121.946 86.8438L121.024 88.1097V92.4851L122.175 93.2922H127.589L128.74 92.0242V87.8782L127.589 86.7271Z" fill="#6C63FF"/>
<path opacity="0.2" d="M127.472 87.4195C127.472 87.4195 122.292 88.2245 121.831 87.4195L121.946 86.8438L127.476 86.7271L127.472 87.4195Z" fill="white"/>
<path opacity="0.5" d="M128.048 99.3943L128.97 100.316V104.692L128.048 105.613C128.048 105.613 124.709 106.764 122.517 105.843L121.481 104.806V100.431L122.402 99.3943H128.048Z" fill="#6C63FF"/>
<path opacity="0.2" d="M127.818 100.431C127.818 100.431 123.787 101.353 122.407 100.431V99.3943H128.048L127.818 100.431Z" fill="white"/>
<path opacity="0.5" d="M125.86 93.2615V99.4907C125.847 99.7374 125.737 99.9689 125.553 100.134C125.37 100.3 125.128 100.386 124.881 100.374V100.374C124.635 100.386 124.393 100.3 124.21 100.134C124.027 99.9687 123.917 99.7372 123.904 99.4907V93.2615C123.912 93.1297 123.947 93.0011 124.008 92.8838C124.068 92.7665 124.153 92.6631 124.255 92.5803C124.358 92.4976 124.477 92.4373 124.605 92.4032C124.732 92.3692 124.865 92.3622 124.996 92.3827C125.223 92.3967 125.437 92.4941 125.597 92.6564C125.756 92.8186 125.85 93.0341 125.86 93.2615Z" fill="#6C63FF"/>
<path opacity="0.5" d="M136.625 86.9053L130.981 87.02L130.062 88.2859V92.6633L131.213 93.4684H136.625L137.776 92.2025V88.0565L136.625 86.9053Z" fill="#6C63FF"/>
<path opacity="0.2" d="M136.51 87.5956C136.51 87.5956 131.327 88.4027 130.866 87.5956L130.981 87.02L136.512 86.9053L136.51 87.5956Z" fill="white"/>
<path opacity="0.5" d="M137.085 99.5725L138.005 100.492V104.868L137.085 105.789C137.085 105.789 133.744 106.941 131.555 106.021L130.52 104.991V100.609L131.442 99.5725H137.085Z" fill="#6C63FF"/>
<path opacity="0.2" d="M136.854 100.609C136.854 100.609 132.825 101.529 131.442 100.609V99.5725H137.085L136.854 100.609Z" fill="white"/>
<path opacity="0.5" d="M134.898 93.4376V99.6647C134.884 99.9115 134.774 100.143 134.59 100.308C134.407 100.474 134.165 100.56 133.919 100.548C133.672 100.56 133.43 100.474 133.247 100.308C133.063 100.143 132.953 99.9115 132.939 99.6647V93.4376C132.939 92.9091 133.452 92.4994 134.033 92.5609C134.26 92.5743 134.474 92.6714 134.634 92.8333C134.793 92.9952 134.887 93.2105 134.898 93.4376V93.4376Z" fill="#6C63FF"/>
</g>
<path d="M214.951 109.511C214.511 108.715 213.687 108.19 212.821 107.949C211.944 107.738 211.038 107.681 210.142 107.781C208.694 107.884 207.258 108.12 205.854 108.487C204.984 108.717 204.08 109.024 203.492 109.716C203.476 109.737 203.458 109.761 203.439 109.782C202.54 110.017 201.647 110.38 200.776 110.675C199.903 110.965 199.014 111.206 198.113 111.398C199.291 110.728 200.438 110.019 201.409 109.073C201.868 108.628 202.28 108.136 202.638 107.606C203.304 107.797 204.002 107.844 204.687 107.744C206.073 107.506 207.194 106.515 208.236 105.548L211.59 102.463C212.124 101.971 212.667 101.467 213.024 100.824C213.505 99.9291 213.548 98.8639 213.56 97.8417C213.577 96.4365 213.56 95.0313 213.519 93.6282L214.58 94.4476C214.419 92.7169 214.741 90.9753 215.51 89.4167C215.879 88.6731 216.362 87.9336 216.373 87.0999C216.389 85.8135 215.283 84.8016 214.15 84.2322C213.017 83.6627 211.743 83.2981 210.815 82.4234C209.435 81.1227 209.177 79.0477 208.495 77.2656C208.09 76.2898 207.611 75.3468 207.061 74.4449L205.733 72.1302C205.066 70.9105 204.321 69.7344 203.505 68.6091C202.124 66.788 200.385 65.2866 198.658 63.8015L189.678 56.0647C187.494 54.1822 185.303 52.2977 182.941 50.6508C178.15 47.3098 172.744 45.0156 167.373 42.7439C166.021 42.1704 164.614 41.5886 163.151 41.6583C162.05 41.7297 161.006 42.1765 160.193 42.9242C159.424 42.6904 158.671 42.4043 157.94 42.068L157.883 42.0413C157.899 41.9205 157.918 41.8017 157.93 41.6808C157.948 41.521 157.959 41.3613 157.971 41.1994C158.375 41.1371 158.767 41.0091 159.13 40.8205C159.315 40.7334 159.478 40.6068 159.608 40.4497C159.773 40.1762 159.857 39.8617 159.851 39.5423C160.015 37.4017 160.179 35.2407 160.003 33.1103C159.827 30.98 159.292 28.823 158.159 27.0122C157.809 26.451 157.371 25.9041 156.762 25.6603C155.943 25.3326 154.995 25.6378 154.12 25.4903C152.606 25.2342 151.662 23.7532 150.566 22.6614C147.794 19.8982 143.054 19.4823 139.855 21.7192C138.642 22.5693 137.671 23.7225 136.59 24.7385C135.508 25.7545 134.24 26.6743 132.78 26.873C132.51 26.8844 132.247 26.9543 132.007 27.0778C131.708 27.2662 131.573 27.6288 131.458 27.9647C131.049 29.1241 130.655 30.3143 130.53 31.5269C130.516 31.4532 130.504 31.3794 130.492 31.3057C130.436 31.7548 130.424 32.2083 130.457 32.6597C130.498 33.2349 130.664 33.7943 130.944 34.2984C131.177 34.7776 131.575 35.1571 132.065 35.3677C132.411 35.4902 132.777 35.5492 133.144 35.5418H133.306C133.247 35.6995 133.189 35.8572 133.136 36.017C132.68 37.3707 132.448 38.7898 132.45 40.2183C132.45 47.3877 138.171 53.1969 145.234 53.1969C146.084 53.1928 146.931 53.1036 147.764 52.9306C148.04 53.0187 148.317 53.1088 148.583 53.2051C149.128 53.3853 149.663 53.5959 150.185 53.836C150.406 53.9405 151.301 54.4628 152.383 55.1367L152.309 55.2904C151.254 56.2759 150.48 57.5243 150.066 58.9076C149.653 60.291 149.614 61.7594 149.955 63.1624C150.738 66.2083 153.305 68.82 153.046 71.9561C153.01 72.4027 152.915 72.8554 152.991 73.2978C153.096 73.9124 153.511 74.4122 153.927 74.8669C154.288 75.2643 154.663 75.6494 155.044 76.0263C155.013 78.0276 154.839 80.0268 154.65 82.022C154.634 82.1961 154.63 82.3722 154.628 82.5505C154.639 83.413 154.952 84.2444 155.513 84.9C156.107 85.623 156.344 86.7066 156.232 87.6735C156.07 89.0582 155.388 90.3139 154.931 91.6269C152.87 97.5324 155.402 104.192 153.976 110.29C153.626 111.791 153.036 113.252 152.952 114.796C152.905 115.761 153.057 116.773 152.686 117.664C152.364 118.438 151.695 118.998 151.062 119.54C150.167 120.307 149.296 121.099 148.448 121.917C147.166 121.216 145.843 120.593 144.486 120.053C144.265 119.963 144.039 119.885 143.81 119.819C142.208 118.32 140.189 117.361 138.292 116.259C136.719 115.347 135.219 114.323 133.712 113.299C132.278 112.316 130.813 111.324 129.601 110.06C128.986 109.421 128.439 108.717 127.777 108.133C127.196 107.649 126.58 107.208 125.934 106.814C123.028 104.931 120.257 102.847 117.642 100.576C115.649 98.8475 114.018 96.6209 111.888 95.0703C110.583 94.1198 109.065 93.2533 107.468 93.4315C106.959 93.4914 106.465 93.6434 106.011 93.8801C105.588 93.7006 105.135 93.5993 104.676 93.5811C103.377 93.5401 102.185 94.2447 101.07 94.9228C94.5156 98.9062 87.8583 102.712 81.0986 106.341C79.7343 107.074 78.3619 107.801 77.0591 108.641C74.5172 110.285 72.2649 112.339 70.3936 114.718C70.0495 115.155 69.6152 115.651 69.0683 115.585C68.9186 115.562 68.7746 115.511 68.6443 115.433C67.8024 114.977 67.2862 114.094 66.8007 113.256C66.4484 112.641 66.0674 112 65.5512 111.533C65.4407 111.242 65.2934 110.967 65.1129 110.714C65.84 108.919 66.4668 107.082 67.0486 105.232C67.3518 104.261 67.6447 103.284 68.0318 102.342C68.9864 100.011 70.5083 97.8991 71.0471 95.4328C71.1761 94.8367 71.2519 94.2243 71.3523 93.622C77.2414 92.4626 81.6865 87.2024 81.6865 80.8851C81.6865 73.7157 75.9632 67.9065 68.9024 67.9065C61.8416 67.9065 56.1204 73.7157 56.1204 80.8851C56.1141 83.0673 56.6567 85.216 57.6983 87.1336C58.74 89.0511 60.2472 90.6759 62.0812 91.8584C62.0812 91.883 62.0812 91.9075 62.0812 91.9301C62.0689 92.342 62.0286 92.7526 61.9604 93.1591C61.7248 94.5315 61.141 95.822 60.5531 97.0736C60.1639 97.9114 59.7747 98.7533 59.3712 99.589C59.1776 99.5501 58.9897 99.4868 58.812 99.4006C58.4658 99.208 58.3142 98.7861 58.1831 98.4132C57.603 96.705 56.8928 95.0436 56.0589 93.4438C55.7337 92.7638 55.3205 92.1296 54.8299 91.5573C53.9655 90.6109 52.7815 90.0496 51.6364 89.4822C51.4316 89.3839 51.2411 89.2774 51.0445 89.1832C50.8744 89.0567 50.6965 88.9411 50.5119 88.837C49.5594 88.2983 48.5024 87.9111 47.7076 87.1573C47.1115 86.5919 46.7019 85.8566 46.1447 85.2564C45.2168 84.2588 43.9365 83.6894 42.6931 83.1465C42.0458 82.8639 41.3658 82.575 40.6591 82.614C40.5595 82.6188 40.4603 82.6297 40.3621 82.6467C40.1921 82.6757 40.0239 82.714 39.8582 82.7614C39.6969 82.6758 39.5445 82.5742 39.4034 82.4583C38.6435 81.8724 38.3485 80.8667 38.1006 79.9306C37.6909 78.3656 37.2587 76.7453 37.5127 75.1434C37.557 74.8671 37.6171 74.5935 37.693 74.3241C37.7565 74.2196 37.8179 74.1192 37.8733 74.0066C39.5041 73.5164 40.9942 72.6436 42.2193 71.4609C43.4445 70.2781 44.3693 68.8197 44.9166 67.2072C45.464 65.5946 45.618 63.8746 45.3659 62.1905C45.1138 60.5063 44.4629 58.9068 43.4674 57.5252C43.363 57.3818 43.2626 57.2425 43.1458 57.1032L43.2687 57.0356C44.4015 56.3433 44.6596 54.6881 44.1352 53.455C43.6108 52.2219 42.4965 51.3513 41.3678 50.6671C41.204 50.5668 41.038 50.4725 40.8701 50.3783L40.7267 50.3005C40.5997 50.2308 40.4747 50.1632 40.3477 50.0956L40.1982 50.0199C40.0487 49.9441 39.8991 49.8724 39.7496 49.8027L39.682 49.7699C39.4956 49.686 39.3092 49.604 39.1207 49.5262C38.9384 49.4504 38.7561 49.3807 38.5718 49.3213L38.496 49.2927C38.3219 49.2292 38.1457 49.1698 37.9695 49.1124L37.9306 49.1001C36.6422 48.6813 35.299 48.4549 33.9444 48.4282C32.6184 48.4362 31.2969 48.5824 30.0013 48.8646C28.7398 49.093 27.5045 49.4478 26.3141 49.9236C24.3467 50.7573 22.6122 52.058 21.2607 53.7131C20.9759 53.7347 20.6935 53.7813 20.4168 53.8524C19.3086 54.133 18.3111 54.7516 17.3995 55.4522C16.636 56.0135 15.9596 56.6844 15.3921 57.4432C14.7237 58.4156 14.2628 59.5152 14.0381 60.6736C13.2618 64.3054 14.2163 68.0478 14.9189 71.698C15.6215 75.3483 16.0271 79.3263 14.3044 82.6017C13.655 83.8307 12.7333 84.8979 12.0511 86.1044C11.369 87.3109 10.8959 88.7673 11.2891 90.1049C11.7664 91.7293 13.3375 92.7515 14.1569 94.2263C15.1156 95.9449 14.8513 98.2535 13.5977 99.757C13.5424 99.8225 13.4871 99.8881 13.4277 99.9618C13.3683 100.036 13.2843 100.113 13.2064 100.183C14.499 100.638 15.939 100.148 17.0984 99.419C18.0256 98.8713 18.8119 98.1144 19.3947 97.2088C20.8593 94.804 20.2017 91.6945 20.7179 88.9148C21.3959 85.2748 24.1326 82.0281 23.7557 78.343C23.5017 75.8706 21.8876 73.8038 20.6196 71.6776C19.7768 70.2505 19.0703 68.7472 18.5097 67.1875C18.4872 67.1219 18.4647 67.0543 18.4401 66.9826C18.0693 65.9277 17.7846 64.8093 17.9751 63.7052C18.0401 63.3476 18.1474 62.9989 18.2947 62.6667C18.2947 62.7056 18.2947 62.7465 18.2947 62.7855C18.3196 63.8533 18.557 64.9055 18.9932 65.8806C20.2734 68.5435 23.3542 69.7725 25.3104 71.9316C25.3924 72.0217 25.4702 72.1139 25.548 72.2081C25.5706 72.2327 25.5911 72.2593 25.6115 72.2859L25.7775 72.4908L25.8471 72.587C25.8983 72.6587 25.9495 72.7304 25.9966 72.8042L26.0601 72.8964C26.1257 73.0008 26.1912 73.1012 26.2527 73.2139C26.7505 72.6628 27.2646 72.0831 27.4653 71.3703C27.4838 71.3088 27.4961 71.2453 27.5084 71.1818C27.5247 71.1982 27.5391 71.2167 27.5555 71.2351C27.5944 71.4543 27.6251 71.6735 27.6538 71.8947C27.6538 72.2108 27.6874 72.5259 27.7542 72.8349C27.9098 74.8014 27.7849 76.8211 27.6538 78.7937C27.5842 79.8486 27.8586 81.4156 27.1868 82.2022L27.1663 82.2248C27.1269 82.2706 27.0837 82.3131 27.0372 82.3518V82.3518C26.9225 82.4706 26.8058 82.5873 26.6972 82.7102C24.444 85.2502 23.4198 88.8554 23.473 92.309C23.5263 96.2399 24.7819 100.048 26.2056 103.704C26.7028 105.039 27.2886 106.339 27.959 107.596C28.3051 108.275 28.7628 108.89 29.313 109.417C29.8886 109.927 30.5892 110.263 31.2795 110.591C31.4515 110.673 31.6256 110.753 31.7977 110.837L32.2381 111.042L35.5913 112.635C36.2059 113.539 36.7999 114.467 37.4001 115.397C37.4861 115.528 37.5701 115.663 37.6582 115.794C38.3137 116.818 38.9732 117.842 39.6451 118.838L45.2967 127.208C45.7063 127.822 46.1344 128.437 46.71 128.891C46.8738 129.02 47.051 129.131 47.2385 129.221C47.3338 129.267 47.4316 129.307 47.5315 129.342C47.4074 129.528 47.3543 129.753 47.3819 129.975C47.4574 130.193 47.6011 130.38 47.7916 130.51C49.0698 131.567 50.4893 132.681 50.8908 134.305C51.1756 135.463 50.8908 136.702 51.1469 137.865C51.616 139.963 53.691 141.235 55.6533 142.042C60.0513 143.849 64.9367 144.543 69.6091 143.703C74.2815 142.863 78.7204 140.44 81.7459 136.739C82.6758 135.596 83.4686 134.348 84.3514 133.168C84.9659 132.337 85.6419 131.544 86.3404 130.78C87.0941 130.435 87.8207 130.034 88.5138 129.58C89.9907 128.598 91.2627 127.339 92.6106 126.171C93.6163 125.294 94.6692 124.467 95.593 123.508C96.4225 122.599 97.1975 121.641 97.9139 120.64C99.5526 118.469 101.245 116.341 102.992 114.256C103.926 113.139 104.915 112.002 106.22 111.388L106.28 111.363C106.435 112.281 107.162 113.059 107.672 113.852C109.782 117.129 111.99 120.503 115.252 122.593C117.038 123.736 119.057 124.436 121.073 125.075C126.194 126.693 131.397 127.963 136.604 129.235C136.776 128.908 136.944 128.605 137.132 128.31C137.213 128.395 137.288 128.485 137.358 128.58C137.38 128.613 137.399 128.648 137.421 128.68C137.384 128.688 137.347 128.698 137.311 128.711C136.976 128.867 136.714 129.143 136.575 129.485C136.014 130.61 135.961 131.915 135.934 133.173C135.916 134.402 135.934 135.631 135.934 136.86C135.904 137.318 135.974 137.778 136.139 138.207C136.536 139.027 137.546 139.332 138.45 139.436C140.019 139.611 141.6 139.463 143.161 139.252C143.251 139.62 143.398 139.972 143.597 140.295C144.474 141.729 145.988 142.675 147.563 143.23C149.138 143.785 150.808 144.006 152.444 144.332C155.351 144.91 158.325 145.834 161.216 145.182C162.369 144.922 163.469 144.418 164.622 144.197C167.262 143.697 169.999 144.709 172.658 144.303C173.942 144.099 175.157 143.587 176.32 142.999C176.907 142.741 177.439 142.374 177.887 141.917C178.313 141.438 178.57 140.758 178.393 140.137C178.293 139.781 178.064 139.477 177.91 139.142C177.704 138.604 177.587 138.037 177.564 137.462C177.35 135.286 176.982 133.129 176.462 131.005C176.447 130.946 176.431 130.884 176.415 130.823C178.424 130.026 180.225 128.775 182.003 127.529L185.827 124.854C187.056 123.987 188.316 123.117 189.696 122.511C191.814 121.581 194.16 121.314 196.468 121.316C197.413 121.316 198.359 121.363 199.299 121.45C199.179 121.58 199.089 121.735 199.035 121.904C198.847 122.49 199.146 123.133 199.59 123.561C200.035 123.99 200.614 124.231 201.137 124.528C202.58 125.341 203.782 126.522 204.619 127.951C205.143 128.85 205.524 129.942 205.193 130.932C204.783 132.173 203.322 133.029 203.406 134.336C203.456 135.106 204.076 135.743 204.783 136.028C205.49 136.313 206.274 136.309 207.036 136.286C208.284 136.247 209.568 136.151 210.684 135.583C211.436 135.2 212.073 134.623 212.698 134.051C213.267 133.529 213.849 132.986 214.173 132.281C214.476 131.618 214.523 130.866 214.537 130.137C214.599 126.704 214.007 123.223 214.689 119.86C214.894 118.836 215.222 117.834 215.396 116.802C215.67 115.163 215.566 113.508 215.461 111.861C215.41 111.05 215.349 110.214 214.951 109.511Z" fill="url(#paint0_linear)"/>
<path opacity="0.06" d="M171.673 62.0316C170.868 62.5745 170.587 63.6232 170.484 64.5901C170.048 68.7012 171.744 72.7714 171.632 76.903C171.541 80.1907 170.316 83.3268 169.108 86.385C167.047 91.6023 165.974 97.2682 165.558 102.862C165.142 108.457 164.534 114.282 161.531 119.014C160.849 120.085 160.054 121.081 159.386 122.158C158.686 123.285 158.131 124.493 157.512 125.665C155.689 129.126 153.34 132.282 150.547 135.02C149.728 135.819 148.86 136.593 147.815 137.054C147.142 137.346 146.417 137.501 145.683 137.508C144.949 137.516 144.221 137.377 143.542 137.099C142.141 136.52 140.961 135.213 140.904 133.697C140.852 132.341 141.661 131.118 142.473 130.032C145.222 126.354 148.383 123.003 151.895 120.044C152.532 119.508 153.204 118.952 153.534 118.186C153.905 117.304 153.753 116.302 153.8 115.345C153.876 113.819 154.47 112.371 154.824 110.884C156.258 104.843 153.71 98.2473 155.783 92.395C156.244 91.0943 156.928 89.8509 157.09 88.4805C157.205 87.5219 156.967 86.4506 156.367 85.7316C155.805 85.0855 155.491 84.2609 155.48 83.4046C155.48 83.2285 155.48 83.0543 155.5 82.8823C155.75 80.2009 155.998 77.5073 155.863 74.8177C155.728 72.1282 155.193 69.4243 153.952 67.0338C153.309 65.7945 152.477 64.6352 152.08 63.2975C151.441 61.1324 152.03 58.7911 152.983 56.7427C153.727 55.1408 154.718 53.6148 156.103 52.5168C158.675 50.4787 162.526 50.2431 165.343 51.9289C167.42 53.1703 168.842 55.2576 169.995 57.3859C170.822 58.9406 171.685 60.2577 171.673 62.0316Z" fill="black"/>
<path d="M164.845 45.7059C164.452 46.767 164.061 47.8281 163.671 48.8891C163.413 49.5856 163.157 50.2882 162.891 50.9846C161.662 54.1945 160.288 57.3531 158.137 60.0099C158.458 59.6125 155.433 57.6132 153.202 56.249C152.114 55.5792 151.213 55.063 150.992 54.9606C150.466 54.723 149.928 54.5138 149.38 54.3338C148.53 54.047 147.669 53.7991 146.819 53.4898C144.853 52.779 146.227 51.7118 147.069 50.5647C149.824 46.808 150.347 41.6747 153.475 38.2231C154.622 40.4026 156.436 42.1577 158.653 43.2315C158.696 43.254 158.741 43.2745 158.786 43.2929C160.644 44.1614 162.696 44.5363 164.618 45.2635C164.722 45.3024 164.843 45.3577 164.878 45.4683C164.891 45.549 164.88 45.6318 164.845 45.7059Z" fill="#A1616A"/>
<path d="M159.497 121.583C158.607 122.857 158.053 124.336 157.887 125.882C157.72 127.428 157.946 128.99 158.544 130.426C158.695 130.827 158.931 131.19 159.235 131.493C159.621 131.795 160.072 132.005 160.552 132.107C164.62 133.265 168.962 133.037 173.129 132.312C174.54 132.095 175.927 131.742 177.271 131.257C179.334 130.469 181.175 129.209 182.994 127.951L186.841 125.3C188.086 124.442 189.342 123.58 190.733 122.978C192.863 122.058 195.223 121.794 197.544 121.796C199.537 121.798 201.526 121.988 203.484 122.363C204.789 122.615 206.352 122.875 207.27 121.923C207.794 121.384 207.95 120.595 208.052 119.852C208.457 116.959 208.45 114.023 208.03 111.132C208.019 110.888 207.931 110.655 207.778 110.466C207.633 110.343 207.457 110.263 207.27 110.234C205.457 109.825 203.638 110.675 201.876 111.259C198.216 112.475 194.285 112.621 190.561 113.623C186.652 114.673 182.982 116.662 178.942 117.066C177.017 117.258 175.083 117.09 173.153 117.133C171.363 117.172 169.694 117.791 167.94 117.865C164.56 118.014 161.621 118.604 159.497 121.583Z" fill="#A1616A"/>
<path opacity="0.06" d="M159.497 121.583C158.607 122.857 158.053 124.336 157.887 125.882C157.72 127.428 157.946 128.99 158.544 130.426C158.695 130.827 158.931 131.19 159.235 131.493C159.621 131.795 160.072 132.005 160.552 132.107C164.62 133.265 168.962 133.037 173.129 132.312C174.54 132.095 175.927 131.742 177.271 131.257C179.334 130.469 181.175 129.209 182.994 127.951L186.841 125.3C188.086 124.442 189.342 123.58 190.733 122.978C192.863 122.058 195.223 121.794 197.544 121.796C199.537 121.798 201.526 121.988 203.484 122.363C204.789 122.615 206.352 122.875 207.27 121.923C207.794 121.384 207.95 120.595 208.052 119.852C208.457 116.959 208.45 114.023 208.03 111.132C208.019 110.888 207.931 110.655 207.778 110.466C207.633 110.343 207.457 110.263 207.27 110.234C205.457 109.825 203.638 110.675 201.876 111.259C198.216 112.475 194.285 112.621 190.561 113.623C186.652 114.673 182.982 116.662 178.942 117.066C177.017 117.258 175.083 117.09 173.153 117.133C171.363 117.172 169.694 117.791 167.94 117.865C164.56 118.014 161.621 118.604 159.497 121.583Z" fill="black"/>
<path d="M162.803 117.252C162.707 117.705 162.621 118.184 162.756 118.627C162.924 119.062 163.207 119.443 163.575 119.729C167.058 122.847 172.033 123.492 176.685 123.998C177.945 124.135 179.227 124.272 180.475 124.045C181.611 123.84 182.673 123.338 183.719 122.842C185.973 121.775 188.238 120.696 190.17 119.127C192.064 117.59 193.584 115.624 195.547 114.176C197.777 112.537 200.52 111.599 202.511 109.669C203.951 108.28 204.908 106.467 205.242 104.495C205.467 103.149 205.393 101.775 205.242 100.419C205.08 98.8598 204.82 97.2743 204.078 95.8937C203.22 94.2959 201.778 93.0894 200.256 92.098C197.036 90.0045 193.244 88.7058 189.399 88.7386C184.074 88.7857 179.157 91.885 175.335 95.3652C171.292 99.0512 168.02 103.502 165.708 108.461C164.402 111.269 163.428 114.219 162.803 117.252V117.252Z" fill="#464353"/>
<path opacity="0.06" d="M162.803 117.252C162.707 117.705 162.621 118.184 162.756 118.627C162.924 119.062 163.207 119.443 163.575 119.729C167.058 122.847 172.033 123.492 176.685 123.998C177.945 124.135 179.227 124.272 180.475 124.045C181.611 123.84 182.673 123.338 183.719 122.842C185.973 121.775 188.238 120.696 190.17 119.127C192.064 117.59 193.584 115.624 195.547 114.176C197.777 112.537 200.52 111.599 202.511 109.669C203.951 108.28 204.908 106.467 205.242 104.495C205.467 103.149 205.393 101.775 205.242 100.419C205.08 98.8598 204.82 97.2743 204.078 95.8937C203.22 94.2959 201.778 93.0894 200.256 92.098C197.036 90.0045 193.244 88.7058 189.399 88.7386C184.074 88.7857 179.157 91.885 175.335 95.3652C171.292 99.0512 168.02 103.502 165.708 108.461C164.402 111.269 163.428 114.219 162.803 117.252V117.252Z" fill="black"/>
<path d="M171.673 62.0316C170.868 62.5745 170.587 63.6232 170.484 64.5901C170.048 68.7012 171.744 72.7714 171.632 76.903C171.541 80.1907 170.316 83.3268 169.108 86.385C167.047 91.6023 165.974 97.2682 165.558 102.862C165.142 108.457 164.534 114.282 161.531 119.014C160.849 120.085 160.054 121.081 159.386 122.158C158.686 123.285 158.131 124.493 157.512 125.665C155.689 129.126 153.34 132.282 150.547 135.02C149.728 135.819 148.86 136.593 147.815 137.054C147.142 137.346 146.417 137.501 145.683 137.508C144.949 137.516 144.221 137.377 143.542 137.099C142.141 136.52 140.961 135.213 140.904 133.697C140.852 132.341 141.661 131.118 142.473 130.032C145.222 126.354 148.383 123.003 151.895 120.044C152.532 119.508 153.204 118.952 153.534 118.186C153.905 117.304 153.753 116.302 153.8 115.345C153.876 113.819 154.47 112.371 154.824 110.884C156.258 104.843 153.71 98.2473 155.783 92.395C156.244 91.0943 156.928 89.8509 157.09 88.4805C157.205 87.5219 156.967 86.4506 156.367 85.7316C155.805 85.0855 155.491 84.2609 155.48 83.4046C155.48 83.2285 155.48 83.0543 155.5 82.8823C155.75 80.2009 155.998 77.5073 155.863 74.8177C155.728 72.1282 155.193 69.4243 153.952 67.0338C153.309 65.7945 152.477 64.6352 152.08 63.2975C151.441 61.1324 152.03 58.7911 152.983 56.7427C153.727 55.1408 154.718 53.6148 156.103 52.5168C158.675 50.4787 162.526 50.2431 165.343 51.9289C167.42 53.1703 168.842 55.2576 169.995 57.3859C170.822 58.9406 171.685 60.2577 171.673 62.0316Z" fill="#A1616A"/>
<path d="M160.355 75.7928C164.637 75.7928 168.108 70.3461 168.108 63.6273C168.108 56.9086 164.637 51.4619 160.355 51.4619C156.073 51.4619 152.602 56.9086 152.602 63.6273C152.602 70.3461 156.073 75.7928 160.355 75.7928Z" fill="#A1616A"/>
<path d="M140.582 127.199C140.811 127.522 140.966 127.891 141.037 128.281C141.108 128.67 141.092 129.07 140.992 129.453C141.722 129.977 142.611 130.236 143.509 130.186C144.401 130.137 145.277 129.936 146.1 129.59C146.816 129.329 147.494 128.973 148.116 128.533C149.185 127.742 149.96 126.612 150.574 125.44C150.92 124.793 151.215 123.955 150.779 123.373C150.607 123.176 150.399 123.014 150.164 122.898C148.586 121.997 146.943 121.216 145.248 120.561C144.783 120.346 144.277 120.233 143.765 120.229C143.136 120.264 142.565 120.608 142.065 120.993C140.942 121.866 140.036 122.988 139.418 124.27C139.226 124.68 138.644 125.653 138.933 126.075C139.064 126.269 139.548 126.337 139.752 126.46C140.078 126.645 140.361 126.897 140.582 127.199V127.199Z" fill="#FBBEBE"/>
<path opacity="0.03" d="M140.582 127.199C140.811 127.522 140.966 127.891 141.037 128.281C141.108 128.67 141.092 129.07 140.992 129.453C141.722 129.977 142.611 130.236 143.509 130.186C144.401 130.137 145.277 129.936 146.1 129.59C146.816 129.329 147.494 128.973 148.116 128.533C149.185 127.742 149.96 126.612 150.574 125.44C150.92 124.793 151.215 123.955 150.779 123.373C150.607 123.176 150.399 123.014 150.164 122.898C148.586 121.997 146.943 121.216 145.248 120.561C144.783 120.346 144.277 120.233 143.765 120.229C143.136 120.264 142.565 120.608 142.065 120.993C140.942 121.866 140.036 122.988 139.418 124.27C139.226 124.68 138.644 125.653 138.933 126.075C139.064 126.269 139.548 126.337 139.752 126.46C140.078 126.645 140.361 126.897 140.582 127.199V127.199Z" fill="black"/>
<path d="M149.064 122.453C152.53 123.096 155.718 124.772 159.124 125.675C160.503 126.04 161.922 126.29 163.239 126.827C164.556 127.363 165.798 128.281 166.365 129.588C166.605 130.215 166.764 130.87 166.838 131.538C166.986 132.482 167.107 133.537 166.545 134.311C165.953 135.131 164.835 135.311 163.833 135.432C160.232 135.86 156.631 136.29 153.018 136.593C152.286 136.638 151.558 136.725 150.836 136.853C150.242 136.972 149.663 137.153 149.073 137.292C148.309 137.47 147.532 137.583 146.758 137.701C144.777 137.986 142.774 138.271 140.785 138.054C139.877 137.953 138.861 137.661 138.462 136.841C138.296 136.416 138.226 135.96 138.257 135.506C138.247 134.289 138.237 133.074 138.257 131.859C138.276 130.612 138.337 129.317 138.902 128.205C139.042 127.865 139.307 127.59 139.642 127.437C139.848 127.378 140.063 127.358 140.277 127.38C141.342 127.416 142.444 127.462 143.396 127.937C144.152 128.312 144.767 128.936 145.537 129.276C146.996 129.924 148.755 129.459 150.232 130.067C150.576 129.006 150.498 127.933 150.242 126.845C149.986 125.757 149.628 124.69 149.519 123.58C149.515 123.336 149.468 123.095 149.38 122.867C149.269 122.64 149.306 122.418 149.064 122.453Z" fill="#464353"/>
<path opacity="0.06" d="M149.064 122.453C152.53 123.096 155.718 124.772 159.124 125.675C160.503 126.04 161.922 126.29 163.239 126.827C164.556 127.363 165.798 128.281 166.365 129.588C166.605 130.215 166.764 130.87 166.838 131.538C166.986 132.482 167.107 133.537 166.545 134.311C165.953 135.131 164.835 135.311 163.833 135.432C160.232 135.86 156.631 136.29 153.018 136.593C152.286 136.638 151.558 136.725 150.836 136.853C150.242 136.972 149.663 137.153 149.073 137.292C148.309 137.47 147.532 137.583 146.758 137.701C144.777 137.986 142.774 138.271 140.785 138.054C139.877 137.953 138.861 137.661 138.462 136.841C138.296 136.416 138.226 135.96 138.257 135.506C138.247 134.289 138.237 133.074 138.257 131.859C138.276 130.612 138.337 129.317 138.902 128.205C139.042 127.865 139.307 127.59 139.642 127.437C139.848 127.378 140.063 127.358 140.277 127.38C141.342 127.416 142.444 127.462 143.396 127.937C144.152 128.312 144.767 128.936 145.537 129.276C146.996 129.924 148.755 129.459 150.232 130.067C150.576 129.006 150.498 127.933 150.242 126.845C149.986 125.757 149.628 124.69 149.519 123.58C149.515 123.336 149.468 123.095 149.38 122.867C149.269 122.64 149.306 122.418 149.064 122.453Z" fill="black"/>
<path d="M33.2868 87.526C32.5883 87.3048 31.9144 87.9234 31.5232 88.5502C29.8967 91.1066 30.0299 94.5192 31.3306 97.2559C31.6401 97.9499 32.067 98.5853 32.5924 99.1343C33.2971 99.8287 34.2045 100.273 35.0505 100.773C37.3979 102.16 39.4096 104.048 40.9417 106.304C41.9434 107.781 42.732 109.405 43.8689 110.779C46.667 114.163 51.2656 115.696 53.9798 119.137C54.6291 119.956 55.1781 120.907 56.0445 121.503C56.5596 121.857 57.1599 122.067 57.7834 122.112C58.4069 122.156 59.031 122.034 59.5912 121.756C60.1514 121.479 60.6274 121.057 60.9701 120.534C61.3127 120.012 61.5096 119.407 61.5404 118.783C62.5953 117.232 63.4577 115.519 64.2791 113.832C65.4944 111.255 66.5213 108.594 67.3517 105.869C67.6569 104.907 67.9519 103.938 68.3411 103.002C69.3018 100.691 70.8319 98.5996 71.3727 96.1579C71.5898 95.1788 71.6431 94.1607 71.9586 93.2103C72.2411 92.3572 72.7244 91.5844 73.3679 90.9571C75.4982 88.8861 76.6453 85.8688 78.3393 83.4312C79.0276 82.446 79.7425 81.4627 80.1972 80.3484C80.652 79.2341 80.8261 77.9579 80.4021 76.8313C79.978 75.7047 78.8699 74.7952 77.6695 74.8587C77.1323 74.9144 76.6111 75.0745 76.1352 75.3298C74.481 76.1149 72.9636 77.1606 71.6411 78.427C71.0627 78.9835 70.5157 79.5716 70.0023 80.1886C67.4992 83.1793 65.5409 86.8091 65.3689 90.7051C65.3115 92.0407 65.418 93.5217 64.57 94.5561C62.2307 97.4136 61.479 101.342 59.4838 104.452C58.56 105.886 57.501 107.371 55.9216 108.024C55.6884 108.137 55.4303 108.187 55.1719 108.172C54.541 108.1 54.1785 107.436 53.9122 106.859C52.8715 104.606 51.6673 102.432 50.309 100.355C49.7724 99.5357 49.1804 98.6959 48.3221 98.2145C47.7362 97.8888 47.0562 97.7434 46.5052 97.3624C45.737 96.8319 45.3355 95.9285 44.9361 95.0825C43.6415 92.3502 42.0025 89.7949 40.0589 87.4789C39.1698 86.4199 37.9982 85.326 36.6257 85.4837C35.3189 85.6374 34.52 87.0118 33.2868 87.526Z" fill="#FBBEBE"/>
<path opacity="0.03" d="M33.2868 87.526C32.5883 87.3048 31.9144 87.9234 31.5232 88.5502C29.8967 91.1066 30.0299 94.5192 31.3306 97.2559C31.6401 97.9499 32.067 98.5853 32.5924 99.1343C33.2971 99.8287 34.2045 100.273 35.0505 100.773C37.3979 102.16 39.4096 104.048 40.9417 106.304C41.9434 107.781 42.732 109.405 43.8689 110.779C46.667 114.163 51.2656 115.696 53.9798 119.137C54.6291 119.956 55.1781 120.907 56.0445 121.503C56.5596 121.857 57.1599 122.067 57.7834 122.112C58.4069 122.156 59.031 122.034 59.5912 121.756C60.1514 121.479 60.6274 121.057 60.9701 120.534C61.3127 120.012 61.5096 119.407 61.5404 118.783C62.5953 117.232 63.4577 115.519 64.2791 113.832C65.4944 111.255 66.5213 108.594 67.3517 105.869C67.6569 104.907 67.9519 103.938 68.3411 103.002C69.3018 100.691 70.8319 98.5996 71.3727 96.1579C71.5898 95.1788 71.6431 94.1607 71.9586 93.2103C72.2411 92.3572 72.7244 91.5844 73.3679 90.9571C75.4982 88.8861 76.6453 85.8688 78.3393 83.4312C79.0276 82.446 79.7425 81.4627 80.1972 80.3484C80.652 79.2341 80.8261 77.9579 80.4021 76.8313C79.978 75.7047 78.8699 74.7952 77.6695 74.8587C77.1323 74.9144 76.6111 75.0745 76.1352 75.3298C74.481 76.1149 72.9636 77.1606 71.6411 78.427C71.0627 78.9835 70.5157 79.5716 70.0023 80.1886C67.4992 83.1793 65.5409 86.8091 65.3689 90.7051C65.3115 92.0407 65.418 93.5217 64.57 94.5561C62.2307 97.4136 61.479 101.342 59.4838 104.452C58.56 105.886 57.501 107.371 55.9216 108.024C55.6884 108.137 55.4303 108.187 55.1719 108.172C54.541 108.1 54.1785 107.436 53.9122 106.859C52.8715 104.606 51.6673 102.432 50.309 100.355C49.7724 99.5357 49.1804 98.6959 48.3221 98.2145C47.7362 97.8888 47.0562 97.7434 46.5052 97.3624C45.737 96.8319 45.3355 95.9285 44.9361 95.0825C43.6415 92.3502 42.0025 89.7949 40.0589 87.4789C39.1698 86.4199 37.9982 85.326 36.6257 85.4837C35.3189 85.6374 34.52 87.0118 33.2868 87.526Z" fill="black"/>
<path d="M33.1435 77.7387C36.1256 77.7387 38.543 75.557 38.543 72.8656C38.543 70.1742 36.1256 67.9925 33.1435 67.9925C30.1614 67.9925 27.7439 70.1742 27.7439 72.8656C27.7439 75.557 30.1614 77.7387 33.1435 77.7387Z" fill="#FBBEBE"/>
<path d="M38.2071 73.8079C39.2807 73.8079 40.151 72.9376 40.151 71.864C40.151 70.7904 39.2807 69.92 38.2071 69.92C37.1335 69.92 36.2632 70.7904 36.2632 71.864C36.2632 72.9376 37.1335 73.8079 38.2071 73.8079Z" fill="#FBBEBE"/>
<path d="M33.8523 72.8656C37.96 72.8656 41.29 71.9751 41.29 70.8766C41.29 69.7781 37.96 68.8876 33.8523 68.8876C29.7445 68.8876 26.4146 69.7781 26.4146 70.8766C26.4146 71.9751 29.7445 72.8656 33.8523 72.8656Z" fill="#FBBEBE"/>
<path d="M27.2196 70.4526C27.4006 71.0262 27.5429 71.6113 27.6457 72.2039C27.0212 71.57 26.4801 70.8589 26.0356 70.088C25.9158 69.955 25.8195 69.8026 25.7509 69.6373C25.0872 68.0928 24.6345 66.5299 24.6345 64.8379C24.6344 62.8761 25.1827 60.9534 26.2177 59.2868C27.2527 57.6202 28.733 56.2762 30.4916 55.4066C32.2501 54.537 34.2167 54.1764 36.1694 54.3655C38.122 54.5547 39.9829 55.286 41.5419 56.477C43.1008 57.6679 44.2957 59.271 44.9915 61.1053C45.6874 62.9395 45.8566 64.9317 45.4799 66.857C45.1033 68.7823 44.1958 70.5639 42.86 72.0007C41.5242 73.4374 39.8132 74.4721 37.9204 74.9877C38.242 73.9512 38.6824 72.9393 38.7398 71.8639C38.7744 71.5052 38.7224 71.1435 38.5882 70.809C38.4085 70.4532 38.1431 70.1477 37.816 69.92C36.6443 69.0248 35.1367 68.6336 33.6618 68.6582C32.1852 68.7195 30.7347 69.0674 29.3909 69.6824C28.9669 69.8647 28.4589 70.1105 27.957 70.2785C27.7178 70.3614 27.4707 70.4197 27.2196 70.4526V70.4526Z" fill="#FBBEBE"/>
<path d="M53.8999 93.4725C53.226 94.552 51.786 94.8818 50.5201 94.7855C48.1603 94.6114 46.0136 93.3516 44.1905 91.8358C42.3675 90.32 40.7738 88.5584 38.9098 87.0999C35.4418 84.3817 31.5355 83.2899 27.1233 83.2264C27.9857 82.5115 27.6682 80.8154 27.7378 79.7011C27.8894 77.4479 28.0328 75.1352 27.7378 72.9148C27.7071 72.6751 27.6723 72.4395 27.6313 72.204C27.7009 72.2777 27.7747 72.3494 27.8505 72.4232C29.1626 73.6823 30.7784 74.5804 32.5405 75.0298C34.3027 75.4792 36.1512 75.4647 37.9061 74.9878C37.7932 75.3445 37.7049 75.7086 37.6418 76.0775C37.3878 77.6609 37.8139 79.2669 38.2338 80.8175C38.4837 81.7454 38.7807 82.7409 39.5448 83.3206C40.0405 83.6975 40.6652 83.845 41.2531 84.0437C42.425 84.4431 43.5067 85.0696 44.4363 85.8873C45.0836 86.4547 45.6654 87.1163 46.3598 87.61C47.0202 88.0277 47.7159 88.3869 48.4389 88.6833C50.2135 89.5022 51.8901 90.5185 53.437 91.7129C53.729 91.8951 53.9561 92.1646 54.0863 92.4831C54.1246 92.652 54.1278 92.8269 54.0957 92.9971C54.0637 93.1673 53.997 93.3291 53.8999 93.4725V93.4725Z" fill="#FBBEBE"/>
<path d="M65.9999 113.319C65.8585 114.253 65.0023 114.983 64.398 115.708C62.7552 117.691 61.0899 119.68 59.2525 121.495C57.286 123.434 55.127 125.163 52.97 126.892L50.1719 129.131C49.8267 129.447 49.4222 129.69 48.9818 129.848C48.466 129.977 47.9208 129.912 47.4496 129.666C47.2619 129.576 47.0841 129.467 46.9191 129.34C46.3394 128.889 45.9133 128.275 45.4975 127.67C43.6047 124.908 41.71 122.145 39.8132 119.381C39.1372 118.393 38.4735 117.379 37.8139 116.365C37.7258 116.234 37.6419 116.101 37.5538 115.97C36.9515 115.048 36.3514 114.127 35.7348 113.235L32.3631 111.656L31.9207 111.451L31.3983 111.208C30.7039 110.882 29.9993 110.55 29.4216 110.046C28.8685 109.526 28.4079 108.916 28.0595 108.241C27.3848 106.994 26.7949 105.703 26.2937 104.376C24.8599 100.757 23.598 96.9835 23.5448 93.0874C23.4977 89.6604 24.5096 86.0962 26.7874 83.5808C27.0987 83.2347 27.4334 82.9103 27.7891 82.6099C28.2274 82.2432 28.6801 82.0281 29.2434 82.108C29.8067 82.1879 30.3414 82.2698 30.8821 82.362C32.3734 82.6187 33.853 82.9328 35.321 83.3043C36.6443 83.6423 38.0147 84.0274 39.3523 83.759C39.5674 83.716 39.7804 83.6545 39.9934 83.5992C40.1675 83.5542 40.3396 83.5112 40.5178 83.4825C40.6167 83.4654 40.7166 83.4544 40.8169 83.4497C41.5277 83.4128 42.2098 83.6976 42.8653 83.9782C44.1168 84.5149 45.4053 85.0802 46.3476 86.0676C46.9088 86.6616 47.3205 87.3908 47.9187 87.95C48.7176 88.6977 49.7827 89.0807 50.7414 89.6154C50.9266 89.7181 51.1051 89.8324 51.276 89.9575C51.6541 90.2408 51.9978 90.5674 52.3002 90.9304V90.9304C53.5415 92.395 54.279 94.3718 55.6493 95.8282C56.746 96.9916 57.6992 98.2825 58.4884 99.673C58.6175 99.9045 58.7424 100.138 58.8653 100.376C59.0702 100.771 59.2607 101.172 59.4368 101.578C59.4819 101.682 59.5269 101.783 59.5679 101.891C59.8257 102.505 60.0506 103.132 60.2418 103.77C60.7068 105.316 61.0161 106.986 62.0485 108.227C62.7696 109.089 63.7692 109.661 64.6111 110.405C65.1532 110.864 65.5799 111.444 65.8565 112.099C66.0085 112.486 66.0579 112.907 65.9999 113.319Z" fill="#FBBEBE"/>
<path opacity="0.06" d="M60.2971 101.017C60.0622 101.313 59.8212 101.605 59.574 101.893C59.533 101.947 59.4879 101.998 59.4429 102.049C57.2867 104.571 54.8183 106.809 52.0973 108.709C50.4136 109.884 48.6376 110.927 46.8657 111.968L43.5883 113.887C42.2179 114.692 40.8291 115.503 39.3092 115.966C38.8217 116.111 38.3116 116.228 37.8139 116.365C37.7258 116.234 37.6418 116.101 37.5537 115.97C36.9515 115.048 36.3513 114.127 35.7347 113.235L32.3631 111.656C34.2251 110.479 35.8771 108.999 37.2506 107.277C39.2989 104.751 40.8742 101.871 42.4268 99.0093C42.7021 98.5474 42.9163 98.0516 43.0639 97.5345C43.2687 96.6762 43.0967 95.7749 42.8447 94.931C41.9224 91.9051 39.9832 89.2907 37.355 87.5301C35.5115 86.3011 33.4139 85.5534 31.3286 84.8324C29.8722 84.3285 28.2765 83.8409 26.7955 84.0478C27.1064 83.7019 27.4411 83.3781 27.7972 83.0789C28.2356 82.7102 28.6883 82.4952 29.2516 82.575C29.8149 82.6549 30.3495 82.7369 30.8903 82.8311C31.9862 83.167 33.0636 83.5685 34.1349 83.9823C34.8397 84.2406 35.5244 84.5508 36.1833 84.9102C36.8392 85.3107 37.4694 85.7519 38.0699 86.2314C39.8461 87.5854 41.7162 88.8113 43.6661 89.9001C45.9194 91.1435 48.2853 92.1534 50.6491 93.1776C50.8998 93.3063 51.1765 93.3764 51.4582 93.3824C51.5994 93.3821 51.7364 93.3349 51.8477 93.2481C51.959 93.1613 52.0382 93.0399 52.0728 92.9031C52.0821 92.7538 52.048 92.6051 51.9744 92.475C51.5647 91.6372 50.6348 91.2152 49.7929 90.8076C46.2983 89.1156 43.2257 86.68 40.1859 84.2629C40.1121 84.2044 40.0472 84.1354 39.9934 84.0581L40.5177 83.9413C43.9197 86.3848 47.5125 88.5507 51.2616 90.4184C51.4596 90.5194 51.6583 90.6177 51.8577 90.7133C52.0011 90.785 52.1424 90.8547 52.2878 90.9182C53.2977 91.4139 54.3076 91.9424 55.0675 92.7617C55.5576 93.3269 55.9709 93.9543 56.2965 94.6278C57.1338 96.2096 57.8487 97.8531 58.4351 99.544C58.4462 99.5801 58.4592 99.6157 58.474 99.6505C58.5483 99.9088 58.6768 100.148 58.8509 100.353C58.9122 100.422 58.985 100.479 59.066 100.523C59.4511 100.75 59.9796 100.726 60.2971 101.017Z" fill="black"/>
<path d="M40.5259 83.4825C43.9274 85.926 47.5203 88.0913 51.2698 89.9575L51.8659 90.2545C53.013 90.8157 54.2072 91.3729 55.0777 92.3029C55.5674 92.8691 55.9807 93.4972 56.3068 94.171C57.1446 95.7522 57.8589 97.3959 58.4433 99.0872C58.5744 99.462 58.728 99.8738 59.0762 100.066C59.4244 100.259 59.9775 100.245 60.2868 100.535C60.0082 100.884 59.7256 101.228 59.4326 101.56C57.277 104.083 54.8086 106.322 52.0871 108.221C50.4033 109.397 48.6273 110.439 46.8555 111.48L43.578 113.399C42.2077 114.202 40.8189 115.013 39.2989 115.476C38.7274 115.651 38.1232 115.782 37.5435 115.95C36.9412 115.028 36.3411 114.106 35.7245 113.215L31.9104 111.429C33.9588 110.269 35.745 108.62 37.2362 106.787C39.2846 104.263 40.8598 101.383 42.4125 98.5218C42.6874 98.0597 42.9015 97.564 43.0496 97.047C43.2544 96.1887 43.0823 95.2854 42.8304 94.4414C41.9076 91.4252 39.974 88.8189 37.355 87.061C35.5115 85.832 33.4139 85.0864 31.3286 84.3633C29.8722 83.8614 28.2765 83.3719 26.7955 83.5808C27.1069 83.2347 27.4416 82.9103 27.7972 82.6099C28.2356 82.2432 28.6883 82.0281 29.2516 82.108C29.8149 82.1879 30.3495 82.2698 30.8903 82.362C31.9862 82.7 33.0636 83.1015 34.1349 83.5153C34.8401 83.7727 35.5248 84.0829 36.1833 84.4432C36.8392 84.8436 37.4693 85.2849 38.0699 85.7644C39.849 87.1152 41.7218 88.3378 43.6743 89.4228C45.9276 90.6683 48.2935 91.6863 50.6573 92.7003C50.9079 92.8292 51.1847 92.8992 51.4664 92.9051C51.6077 92.9056 51.7451 92.8586 51.8565 92.7717C51.968 92.6848 52.047 92.563 52.0809 92.4258C52.0901 92.2772 52.056 92.1292 51.9826 91.9997C51.5729 91.1619 50.643 90.7379 49.8011 90.3323C46.3065 88.6403 43.2339 86.2028 40.1941 83.7774C40.1197 83.7196 40.0547 83.6505 40.0015 83.5726L40.5259 83.4825Z" fill="#54A874"/>
<path d="M69.2261 94.6032C76.3273 94.6032 82.0839 88.8466 82.0839 81.7454C82.0839 74.6442 76.3273 68.8876 69.2261 68.8876C62.1249 68.8876 56.3683 74.6442 56.3683 81.7454C56.3683 88.8466 62.1249 94.6032 69.2261 94.6032Z" fill="#54A874"/>
<path d="M82.01 132.918C84.4168 132.163 86.8606 131.392 88.9745 130.01C90.4596 129.039 91.7399 127.789 93.0877 126.634C94.1017 125.765 95.1586 124.946 96.0886 123.987C96.9218 123.09 97.7015 122.145 98.4238 121.157C100.068 119.004 101.766 116.893 103.518 114.823C104.458 113.719 105.452 112.594 106.765 111.98C109.098 110.884 111.837 111.623 114.299 112.375C117.986 113.502 121.655 114.696 125.104 116.41C127.067 117.388 128.967 118.477 130.948 119.413C134.57 121.124 138.415 122.298 142.245 123.465C142.53 123.586 142.846 123.612 143.146 123.539C143.361 123.44 143.546 123.286 143.681 123.092C144.181 122.475 144.581 121.784 144.867 121.044C144.922 120.96 144.942 120.858 144.924 120.76C144.906 120.661 144.851 120.573 144.771 120.513C143.132 118.918 141.006 117.936 139.019 116.8C137.438 115.896 135.924 114.882 134.412 113.868C132.96 112.895 131.495 111.912 130.276 110.661C129.662 110.028 129.109 109.329 128.443 108.751C127.855 108.27 127.232 107.834 126.579 107.445C123.659 105.58 120.872 103.515 118.238 101.265C116.235 99.5521 114.594 97.346 112.453 95.8097C111.14 94.8674 109.612 94.0092 108.006 94.1812C106.052 94.3861 104.61 96.0248 103.248 97.4382C98.6696 102.193 92.8931 105.595 87.7844 109.776C83.6139 113.184 79.7158 117.234 74.6357 119.032C74.8631 119.786 74.943 120.54 75.1724 121.286C75.4583 122.322 75.8149 123.338 76.2396 124.325C76.6608 125.2 77.1349 126.048 77.6592 126.865L79.6953 130.19C80.105 130.866 80.5331 131.552 81.1189 132.089C81.4262 132.384 82.01 132.49 82.01 132.918Z" fill="#464353"/>
<path opacity="0.06" d="M82.01 132.918C84.4168 132.163 86.8606 131.392 88.9745 130.01C90.4596 129.039 91.7399 127.789 93.0877 126.634C94.1017 125.765 95.1586 124.946 96.0886 123.987C96.9218 123.09 97.7015 122.145 98.4238 121.157C100.068 119.004 101.766 116.893 103.518 114.823C104.458 113.719 105.452 112.594 106.765 111.98C109.098 110.884 111.837 111.623 114.299 112.375C117.986 113.502 121.655 114.696 125.104 116.41C127.067 117.388 128.967 118.477 130.948 119.413C134.57 121.124 138.415 122.298 142.245 123.465C142.53 123.586 142.846 123.612 143.146 123.539C143.361 123.44 143.546 123.286 143.681 123.092C144.181 122.475 144.581 121.784 144.867 121.044C144.922 120.96 144.942 120.858 144.924 120.76C144.906 120.661 144.851 120.573 144.771 120.513C143.132 118.918 141.006 117.936 139.019 116.8C137.438 115.896 135.924 114.882 134.412 113.868C132.96 112.895 131.495 111.912 130.276 110.661C129.662 110.028 129.109 109.329 128.443 108.751C127.855 108.27 127.232 107.834 126.579 107.445C123.659 105.58 120.872 103.515 118.238 101.265C116.235 99.5521 114.594 97.346 112.453 95.8097C111.14 94.8674 109.612 94.0092 108.006 94.1812C106.052 94.3861 104.61 96.0248 103.248 97.4382C98.6696 102.193 92.8931 105.595 87.7844 109.776C83.6139 113.184 79.7158 117.234 74.6357 119.032C74.8631 119.786 74.943 120.54 75.1724 121.286C75.4583 122.322 75.8149 123.338 76.2396 124.325C76.6608 125.2 77.1349 126.048 77.6592 126.865L79.6953 130.19C80.105 130.866 80.5331 131.552 81.1189 132.089C81.4262 132.384 82.01 132.49 82.01 132.918Z" fill="black"/>
<path d="M138.087 129.016C138.316 129.339 138.471 129.708 138.542 130.098C138.612 130.487 138.597 130.887 138.497 131.27C139.225 131.796 140.111 132.057 141.008 132.009C141.901 131.96 142.78 131.759 143.605 131.415C144.321 131.153 144.999 130.798 145.621 130.358C146.692 129.567 147.465 128.437 148.089 127.263C148.435 126.618 148.73 125.78 148.284 125.198C148.113 125 147.904 124.838 147.669 124.723C146.094 123.823 144.454 123.042 142.763 122.386C142.298 122.172 141.793 122.058 141.28 122.052C140.65 122.087 140.078 122.433 139.578 122.818C138.456 123.692 137.551 124.813 136.934 126.095C136.741 126.505 136.159 127.48 136.446 127.902C136.577 128.097 137.061 128.164 137.266 128.285C137.587 128.469 137.867 128.718 138.087 129.016V129.016Z" fill="#FBBEBE"/>
<path d="M147.467 124.17C150.933 124.815 154.12 126.489 157.526 127.392C158.905 127.757 160.324 128.006 161.642 128.543C162.959 129.08 164.2 129.997 164.767 131.304C165.007 131.932 165.166 132.587 165.241 133.254C165.388 134.199 165.509 135.254 164.948 136.028C164.356 136.847 163.237 137.03 162.236 137.148C158.635 137.579 155.033 138.007 151.42 138.31C150.69 138.355 149.963 138.442 149.243 138.57C148.649 138.691 148.069 138.869 147.479 139.008C146.717 139.189 145.939 139.299 145.164 139.418C143.183 139.701 141.18 139.988 139.191 139.768C138.284 139.668 137.268 139.375 136.868 138.556C136.702 138.131 136.632 137.675 136.663 137.22C136.663 136.005 136.643 134.789 136.663 133.574C136.682 132.326 136.743 131.032 137.309 129.92C137.449 129.579 137.714 129.305 138.048 129.151C138.254 129.092 138.47 129.073 138.683 129.094C139.748 129.131 140.85 129.176 141.803 129.651C142.559 130.026 143.104 128.906 143.874 129.242C145.334 129.887 144.345 127.931 145.82 128.539C146.164 127.478 147.626 128.109 147.372 127.021C147.118 125.933 148.03 126.407 147.925 125.288C147.921 125.044 147.874 124.803 147.786 124.575C147.671 124.356 147.708 124.135 147.467 124.17Z" fill="#464353"/>
<path opacity="0.06" d="M43.6457 58.6313C42.8509 59.0942 41.8656 59.0082 40.9397 58.9877C40.13 58.971 39.3202 59.0127 38.5165 59.1127C38.2271 59.1329 37.9441 59.208 37.6828 59.3339C37.3424 59.5534 37.0734 59.8673 36.9085 60.2372C36.5807 60.8669 36.3599 61.5467 36.255 62.2488C36.1403 63.0374 36.1526 63.8998 35.661 64.5245C34.9912 65.3746 33.9465 65.2435 32.9981 65.4115C32.1727 65.5699 31.3816 65.8722 30.6609 66.3046C29.9502 66.7337 29.3405 67.311 28.8731 67.9972C28.4058 68.6833 28.0919 69.4621 27.9529 70.2805C27.9263 70.4669 27.9078 70.6513 27.8996 70.8377C27.8792 71.3662 27.9324 71.9049 27.8628 72.4232C27.8459 72.5525 27.8199 72.6805 27.7849 72.8062C27.7759 72.8432 27.7642 72.8795 27.7501 72.9148C27.7194 72.6751 27.6846 72.4396 27.6436 72.204C27.0191 71.57 26.478 70.8589 26.0335 70.088C25.9137 69.955 25.8174 69.8027 25.7488 69.6374C25.0851 68.0929 24.6324 66.5299 24.6324 64.838C24.6323 62.6191 25.3339 60.457 26.6368 58.6609C27.9397 56.8648 29.7772 55.5268 31.8865 54.8381C33.9958 54.1495 36.2689 54.1455 38.3806 54.8268C40.4923 55.5081 42.3345 56.8398 43.6436 58.6313H43.6457Z" fill="black"/>
<path d="M44.3196 54.6C43.7932 53.3812 42.6809 52.5168 41.5379 51.8388C39.2846 50.495 36.6914 49.6511 34.0612 49.6163C32.7342 49.6166 31.4108 49.7539 30.1119 50.026C28.8462 50.2522 27.6063 50.6042 26.4105 51.0768C24.4374 51.8974 22.6933 53.1852 21.3284 54.8295C21.0417 54.8512 20.7573 54.8971 20.4783 54.9667C19.364 55.2453 18.3603 55.8578 17.4446 56.5522C16.6784 57.1072 15.9979 57.7718 15.4249 58.5248C14.7543 59.4863 14.2905 60.5765 14.0627 61.7264C13.2823 65.3234 14.243 69.0351 14.9476 72.6464C15.6523 76.2577 16.064 80.203 14.3331 83.4476C13.6797 84.6767 12.7518 85.7213 12.0553 86.9176C11.3588 88.1139 10.8959 89.5539 11.2912 90.8812C11.7624 92.4954 13.3478 93.5196 14.1754 94.9719C14.6822 95.9219 14.8631 97.0121 14.6903 98.0749C14.5175 99.1377 14.0005 100.114 13.2188 100.855C14.5195 101.306 15.9677 100.82 17.1394 100.099C18.0684 99.5581 18.8588 98.8084 19.448 97.9093C20.9208 95.525 20.2673 92.4462 20.7794 89.6911C21.4615 86.086 24.2146 82.87 23.8356 79.2197C23.5796 76.7616 21.9573 74.7235 20.6811 72.6157C19.8299 71.21 19.1145 69.7264 18.5446 68.185C18.1349 67.085 17.8031 65.9031 18.0059 64.7478C18.073 64.3951 18.1809 64.0514 18.3275 63.7236C18.3275 63.7625 18.3275 63.8014 18.3275 63.8404C18.3508 64.9014 18.5892 65.9467 19.028 66.9129C20.552 70.0265 24.6099 71.1736 26.3285 74.1827C26.8304 73.6358 27.3527 73.0622 27.5576 72.3494C27.7378 71.7144 27.6457 71.0384 27.6723 70.3788C27.744 68.5353 28.8645 66.7982 30.4335 65.8478C31.1537 65.4147 31.945 65.113 32.7707 64.9567C33.7171 64.7867 34.7618 64.9158 35.4337 64.0657C35.9253 63.4512 35.913 62.5785 36.0297 61.792C36.1336 61.089 36.3545 60.4084 36.6832 59.7784C36.8475 59.4086 37.1167 59.0953 37.4575 58.8771C37.7192 58.7501 38.003 58.675 38.2932 58.6559C39.0962 58.5559 39.9054 58.5141 40.7144 58.5309C41.6505 58.5534 42.6522 58.6374 43.4552 58.1561C44.5859 57.4678 44.846 55.8291 44.3196 54.6Z" fill="#464353"/>
<path opacity="0.06" d="M158.786 43.2929C158.786 43.3216 158.786 43.3482 158.786 43.3769C158.415 46.5724 155.343 46.4249 154.626 51.4598C154.343 53.4325 151.348 53.7971 149.38 54.3276C148.53 54.0408 147.669 53.793 146.819 53.4837C144.853 52.7729 146.227 51.7056 147.069 50.5585C149.824 46.8018 150.347 41.6685 153.475 38.217C154.622 40.3965 156.436 42.1515 158.653 43.2253C158.696 43.254 158.741 43.2745 158.786 43.2929Z" fill="black"/>
<path d="M158.858 41.4596C158.857 41.9442 158.83 42.4283 158.776 42.9098C158.398 46.2357 156.739 49.2834 154.15 51.4051C151.562 53.5269 148.247 54.5555 144.912 54.2723C141.577 53.9892 138.484 52.4166 136.29 49.8888C134.096 47.361 132.974 44.0772 133.163 40.7353C133.351 37.3935 134.836 34.257 137.301 31.9924C139.766 29.7278 143.016 28.5136 146.362 28.6079C149.708 28.7022 152.885 30.0976 155.219 32.4974C157.552 34.8972 158.857 38.1124 158.858 41.4596V41.4596Z" fill="#A1616A"/>
<path d="M164.03 42.8975C165.503 42.8259 166.918 43.4035 168.278 43.9709C173.672 46.2241 179.11 48.4958 183.93 51.804C186.306 53.4427 188.508 55.3027 190.706 57.1687L199.738 64.842C201.473 66.3148 203.22 67.802 204.613 69.6046C205.433 70.7163 206.18 71.8795 206.852 73.0868L208.191 75.3708C208.74 76.2648 209.219 77.1995 209.625 78.1669C210.313 79.9305 210.569 81.9871 211.958 83.2756C212.89 84.142 214.175 84.4944 215.314 85.0659C216.452 85.6374 217.567 86.6411 217.548 87.9152C217.548 88.7346 217.053 89.472 216.68 90.2094C215.908 91.7503 215.584 93.4772 215.746 95.1932L200.977 83.9065C200.389 83.4579 199.774 82.9949 199.051 82.8434C198.113 82.6385 197.157 82.9929 196.251 83.3125C189.114 85.8296 181.529 86.8266 173.983 86.2396C170.646 85.9774 167.258 85.3772 164.337 83.7447C162.721 82.8434 161.291 81.6491 159.872 80.4672C158.1 78.9842 156.322 77.497 154.751 75.801C154.341 75.3483 153.915 74.8505 153.81 74.2442C153.733 73.8058 153.829 73.3593 153.866 72.9168C154.124 69.8094 151.543 67.2223 150.756 64.205C150.407 62.7823 150.455 61.2908 150.896 59.8938C151.337 58.4967 152.154 57.2479 153.257 56.2838C155.017 57.8242 154.953 60.5302 154.749 62.8592C154.472 65.9953 155.349 67.55 155.072 70.6882C156.187 70.6472 155.984 71.3641 156.459 70.3543C156.934 69.3444 157.026 68.2055 157.117 67.0932C157.446 63.0702 157.845 59.054 158.315 55.0446C158.548 53.0392 158.815 51.0379 159.071 49.0345C159.226 47.8158 159.206 46.6768 159.849 45.5953C160.742 44.0979 162.26 42.9815 164.03 42.8975Z" fill="#54A874"/>
<path d="M165.958 46.5519C166.896 46.2569 167.906 46.5273 168.848 46.8079C170.514 47.3023 172.17 47.8246 173.817 48.3749C175.163 48.8235 176.527 49.3049 177.666 50.1509C178.848 51.0276 179.715 52.2464 180.573 53.4447C181.187 54.3071 181.802 55.1797 182.212 56.1589C182.744 57.4411 182.888 58.8464 183.031 60.227C183.125 60.8228 183.117 61.4302 183.008 62.0234C182.816 62.6675 182.477 63.2585 182.019 63.7502C181.314 64.5849 180.496 65.3177 179.59 65.9277C177.179 67.55 174.264 68.226 171.425 68.822C168.891 69.3526 166.339 69.8462 163.754 70.006C162.748 70.0695 161.58 70.006 160.966 69.2112C160.791 68.9635 160.653 68.6916 160.556 68.4042C159.046 64.4038 158.392 60.1309 158.637 55.8618C158.659 55.0837 158.779 54.3115 158.995 53.5635C159.208 52.965 159.472 52.3859 159.784 51.8326C160.56 50.3639 161.377 48.844 162.715 47.8608C164.114 46.8366 165.927 46.513 167.662 46.5785" fill="#A1616A"/>
<path opacity="0.06" d="M175.394 61.7428C174.589 62.2856 174.309 63.3344 174.206 64.3012C173.77 68.4124 175.466 72.4825 175.353 76.6142C175.263 79.8916 174.038 83.0379 172.83 86.0962C170.769 91.3135 169.696 96.9793 169.28 102.574C168.864 108.168 168.256 113.993 165.253 118.725C164.571 119.796 163.776 120.792 163.108 121.869C162.408 122.996 161.852 124.205 161.234 125.376C159.411 128.837 157.062 131.993 154.269 134.731C153.45 135.53 152.581 136.304 151.537 136.765C150.863 137.057 150.139 137.212 149.405 137.22C148.671 137.227 147.943 137.088 147.264 136.81C145.863 136.231 144.683 134.924 144.625 133.408C144.574 132.052 145.383 130.829 146.194 129.743C148.944 126.065 152.105 122.714 155.617 119.755C156.254 119.219 156.926 118.664 157.256 117.898C157.627 117.015 157.475 116.013 157.522 115.056C157.598 113.53 158.192 112.082 158.546 110.595C159.98 104.554 157.432 97.9585 159.505 92.1062C159.966 90.8055 160.65 89.5621 160.812 88.1917C160.927 87.2331 160.687 86.1617 160.089 85.4428C159.527 84.7964 159.212 83.9721 159.2 83.1158C159.2 82.9396 159.2 82.7655 159.222 82.5934C159.472 79.9121 159.72 77.2184 159.585 74.5289C159.45 71.8393 158.915 69.1355 157.674 66.745C157.03 65.5057 156.199 64.3463 155.801 63.0087C155.162 60.8435 155.752 58.5022 156.705 56.4538C157.448 54.852 158.44 53.3259 159.824 52.228C162.397 50.1898 166.248 49.9543 169.065 51.6401C171.142 52.8814 172.564 54.9687 173.717 57.097C174.544 58.6518 175.417 59.9689 175.394 61.7428Z" fill="black"/>
<path d="M175.862 61.7428C175.057 62.2856 174.776 63.3344 174.674 64.3012C174.237 68.4124 175.933 72.4825 175.821 76.6142C175.73 79.8916 174.506 83.0379 173.297 86.0962C171.236 91.3135 170.165 96.9793 169.747 102.574C169.329 108.168 168.723 113.993 165.72 118.725C165.038 119.796 164.245 120.792 163.575 121.869C162.877 122.996 162.32 124.205 161.701 125.376C159.878 128.836 157.528 131.992 154.736 134.731C153.917 135.53 153.047 136.304 152.002 136.765C151.329 137.057 150.604 137.212 149.87 137.22C149.136 137.227 148.408 137.088 147.729 136.81C146.33 136.231 145.15 134.924 145.093 133.408C145.039 132.052 145.848 130.829 146.662 129.743C149.411 126.065 152.572 122.714 156.084 119.755C156.721 119.219 157.395 118.664 157.723 117.898C158.096 117.015 157.942 116.013 157.989 115.056C158.065 113.53 158.659 112.082 159.014 110.595C160.447 104.554 157.899 97.9585 159.972 92.1062C160.433 90.8055 161.119 89.5621 161.281 88.1917C161.394 87.2331 161.156 86.1617 160.558 85.4428C159.986 84.8009 159.662 83.9756 159.644 83.1158C159.644 82.9396 159.644 82.7655 159.667 82.5934C159.915 79.9121 160.163 77.2184 160.027 74.5289C159.892 71.8393 159.358 69.1355 158.116 66.745C157.473 65.5057 156.641 64.3463 156.244 63.0087C155.605 60.8435 156.195 58.5022 157.147 56.4538C157.893 54.852 158.882 53.3259 160.267 52.228C162.84 50.1898 166.691 49.9543 169.507 51.6401C171.585 52.8814 173.006 54.9687 174.159 57.097C175.007 58.6518 175.876 59.9689 175.862 61.7428Z" fill="#A1616A"/>
<path d="M196.577 115.233L196.401 115.286Z" fill="#464353"/>
<path d="M160.699 124.373C160.707 124.304 160.719 124.235 160.736 124.168Z" fill="#464353"/>
<path d="M204.617 110.316C205.207 109.634 206.116 109.329 206.991 109.102C208.4 108.737 209.84 108.503 211.293 108.401C212.194 108.304 213.106 108.36 213.988 108.567C214.861 108.807 215.688 109.327 216.131 110.116C216.522 110.812 216.584 111.64 216.635 112.437C216.741 114.075 216.84 115.714 216.569 117.328C216.395 118.352 216.07 119.344 215.859 120.36C215.174 123.69 215.768 127.138 215.707 130.538C215.693 131.263 215.645 132.007 215.34 132.665C215.015 133.363 214.429 133.894 213.857 134.418C213.228 134.985 212.589 135.557 211.831 135.936C210.709 136.499 209.416 136.593 208.161 136.632C207.397 136.655 206.61 136.657 205.907 136.376C205.205 136.096 204.572 135.465 204.521 134.701C204.439 133.404 205.901 132.556 206.319 131.327C206.651 130.348 206.27 129.266 205.741 128.375C204.894 126.955 203.684 125.785 202.237 124.985C201.7 124.69 201.128 124.442 200.682 124.026C200.235 123.611 199.932 122.965 200.123 122.388C200.35 121.689 201.163 121.364 201.895 121.294C202.626 121.224 203.398 121.277 204.056 120.952C204.641 120.663 205.049 120.106 205.33 119.518C205.927 118.263 206.01 116.824 205.561 115.509C205.384 115.009 205.126 114.541 204.799 114.122C204.492 113.729 203.861 113.397 203.642 112.967C203.253 112.193 204.095 110.931 204.617 110.316Z" fill="#54A874"/>
<path opacity="0.06" d="M192.714 80.6311C189.33 77.6404 184.612 76.8272 180.188 75.9198C177.909 75.4541 175.64 74.9352 173.383 74.363C171.9 73.9861 170.413 73.5846 168.876 73.4801C167.34 73.3757 165.759 73.5907 164.444 74.3732C163.129 75.1557 162.137 76.5732 162.129 78.1034C162.129 78.7179 162.274 79.3201 162.229 79.9285C162.158 80.9076 161.615 81.772 161.244 82.6877C160.677 84.1351 160.59 85.7264 160.996 87.2269C161.652 89.6174 163.54 91.7232 163.377 94.1915C163.104 98.3231 163.188 102.641 164.036 106.687C164.884 110.732 165.943 114.796 165.919 118.936C165.894 123.076 164.64 127.429 161.549 130.186C163.644 132.152 166.205 133.552 168.991 134.252C171.373 134.848 174.206 134.789 175.902 133.013C176.296 132.603 176.621 132.056 176.54 131.493C176.455 131.137 176.306 130.801 176.099 130.499C174.934 128.412 175.075 125.839 175.591 123.508C176.107 121.177 176.99 118.912 177.213 116.531C177.377 114.805 177.193 113.049 177.523 111.345C177.777 110.04 178.326 108.811 178.656 107.522C179.629 103.7 178.606 99.6873 177.59 95.8794C178.44 97.8356 180.048 99.3616 181.712 100.689C184.235 102.701 187.287 104.476 190.495 104.12C193.351 103.801 195.782 101.816 197.46 99.4866C197.474 96.7929 198.408 94.2468 198.242 91.5593C198.135 90.3788 197.924 89.2101 197.611 88.0668C197.298 86.7886 196.976 85.4981 196.382 84.3243C195.598 82.7655 194.021 81.7843 192.714 80.6311Z" fill="black"/>
<path d="M193.414 80.6311C190.03 77.6404 185.315 76.8272 180.888 75.9198C178.609 75.4541 176.342 74.9352 174.086 74.363C172.603 73.9861 171.113 73.5846 169.579 73.4801C168.045 73.3757 166.464 73.5907 165.148 74.3732C163.833 75.1557 162.84 76.5732 162.834 78.1034C162.834 78.7179 162.977 79.3201 162.932 79.9285C162.862 80.9076 162.307 81.772 161.947 82.6877C161.38 84.1353 161.294 85.7266 161.701 87.2269C162.354 89.6174 164.243 91.7232 164.081 94.1915C163.807 98.3231 163.891 102.641 164.739 106.687C165.587 110.732 166.646 114.796 166.621 118.936C166.597 123.076 165.335 127.414 162.242 130.167C164.336 132.133 166.898 133.533 169.684 134.234C172.066 134.83 174.901 134.77 176.595 132.994C176.988 132.585 177.314 132.038 177.232 131.474C177.147 131.119 176.998 130.782 176.792 130.481C175.626 128.394 175.767 125.821 176.284 123.49C176.8 121.159 177.683 118.893 177.908 116.513C178.07 114.786 177.885 113.031 178.217 111.326C178.469 110.021 179.02 108.792 179.348 107.504C180.321 103.682 179.301 99.6689 178.283 95.8609C179.133 97.8171 180.741 99.3432 182.406 100.671C184.93 102.682 187.98 104.458 191.188 104.102C194.043 103.782 196.475 101.797 198.152 99.4681C198.165 96.7745 199.099 94.2283 198.933 91.5408C198.826 90.3604 198.615 89.1917 198.302 88.0483C197.99 86.7701 197.667 85.4796 197.073 84.3059C196.311 82.7655 194.721 81.7843 193.414 80.6311Z" fill="#A1616A"/>
<path d="M169.907 132.322C168.404 131.407 167.106 130.192 166.095 128.752C165.73 128.236 165.402 127.687 164.948 127.249C164.493 126.81 163.876 126.484 163.248 126.55C162.537 126.624 161.967 127.165 161.517 127.722C160.308 129.219 159.53 131.05 158.188 132.433C156.639 134.033 154.478 134.891 152.321 135.44C150.164 135.989 147.938 136.278 145.824 136.972C145.16 137.189 144.462 137.484 144.103 138.085C143.648 138.849 143.898 139.85 144.378 140.608C145.261 142.042 146.78 142.966 148.366 143.515C149.951 144.064 151.629 144.283 153.282 144.607C156.203 145.178 159.196 146.094 162.102 145.449C163.262 145.19 164.356 144.691 165.527 144.473C168.19 143.978 170.937 144.979 173.61 144.578C174.903 144.383 176.124 143.867 177.297 143.285C177.886 143.031 178.421 142.667 178.875 142.214C179.303 141.739 179.561 141.065 179.385 140.45C179.284 140.096 179.053 139.797 178.899 139.463C178.658 138.947 178.608 138.367 178.551 137.8C178.33 135.64 177.955 133.499 177.429 131.392C177.246 130.657 176.974 129.838 176.288 129.516C176.148 129.441 175.984 129.422 175.831 129.465C175.587 129.557 175.507 129.852 175.433 130.1C175.232 130.785 174.847 131.402 174.32 131.884C173.793 132.366 173.144 132.694 172.444 132.833C171.743 132.972 171.018 132.916 170.347 132.672C169.676 132.428 169.084 132.004 168.637 131.448" fill="#54A874"/>
<path opacity="0.06" d="M158.858 41.4596C158.858 41.9442 158.83 42.4283 158.776 42.9099C158.13 43.0065 157.471 42.9495 156.852 42.7434C156.232 42.5374 155.671 42.188 155.212 41.7239C154.779 41.265 154.456 40.7099 154.028 40.2469C153.6 39.784 153.003 39.3989 152.389 39.4481C151.865 39.487 151.41 39.8188 151.051 40.2039C150.585 40.7053 150.243 41.3095 150.054 41.9676C149.917 42.4326 149.849 42.9611 149.464 43.2704C149.079 43.5797 148.606 43.5592 148.149 43.5428C147.557 43.5223 146.942 43.4937 146.42 43.2151C145.437 42.6845 145.105 41.4698 144.74 40.4129C144.126 38.6369 142.743 35.2775 140.594 34.9191C139.57 34.749 138.325 35.2898 137.522 35.8736C136.311 36.7524 135.418 37.3218 133.853 37.2973C134.84 34.4178 136.816 31.9817 139.43 30.4222C142.044 28.8627 145.126 28.2809 148.128 28.7803C151.131 29.2797 153.859 30.8279 155.827 33.1496C157.796 35.4712 158.877 38.4158 158.878 41.4596H158.858Z" fill="black"/>
<path d="M133.835 36.8281C133.465 36.8361 133.098 36.7778 132.749 36.6561C131.755 36.2669 131.272 35.1198 131.188 34.0567C131.057 32.4364 131.598 30.8468 132.141 29.3126C132.255 28.9787 132.393 28.6202 132.692 28.4338C132.934 28.3149 133.198 28.2486 133.468 28.2392C134.939 28.0344 136.215 27.1351 137.3 26.1273C138.386 25.1195 139.365 23.9765 140.578 23.1366C143.794 20.9182 148.567 21.332 151.348 24.0687C152.45 25.1502 153.397 26.6169 154.925 26.8709C155.806 27.0163 156.75 26.7131 157.588 27.0409C158.202 27.2806 158.641 27.8234 158.993 28.3785C160.136 30.1729 160.673 32.2991 160.851 34.4192C161.029 36.5393 160.865 38.6717 160.699 40.7918C160.709 41.1092 160.627 41.4227 160.464 41.6951C160.333 41.8523 160.168 41.9782 159.982 42.0638C159.204 42.4478 158.324 42.5768 157.467 42.4327C156.611 42.2886 155.822 41.8786 155.212 41.2609C154.777 40.8041 154.456 40.249 154.028 39.784C153.6 39.319 153.004 38.938 152.389 38.9871C151.867 39.0261 151.408 39.3579 151.051 39.743C150.585 40.2444 150.243 40.8486 150.054 41.5067C149.919 41.9717 149.849 42.5001 149.464 42.8074C149.079 43.1147 148.606 43.0983 148.147 43.0819C147.557 43.0594 146.942 43.0327 146.42 42.7521C145.435 42.2236 145.103 41.0089 144.74 39.9519C144.126 38.176 142.745 34.8146 140.594 34.4581C139.57 34.2861 138.325 34.8289 137.522 35.4127C136.293 36.2853 135.408 36.8548 133.835 36.8281Z" fill="#464353"/>
<path opacity="0.06" d="M65.9999 113.319C65.8586 114.253 65.0023 114.983 64.398 115.708C62.7552 117.691 61.0899 119.68 59.2525 121.495C57.286 123.434 55.127 125.163 52.97 126.892L50.1719 129.131C49.8267 129.447 49.4222 129.69 48.9818 129.848C48.4659 129.977 47.9208 129.912 47.4496 129.666C47.4906 129.584 47.5336 129.508 47.5807 129.432L50.936 123.809C51.5955 122.707 52.0278 121.703 52.7795 120.669C53.9123 119.12 55.0553 117.564 56.4503 116.251C58.2139 114.589 60.4754 113.383 62.5729 112.183C62.8761 111.273 64.1461 111.021 65.0044 111.451C65.3225 111.616 65.6089 111.836 65.8504 112.101C66.0041 112.487 66.0556 112.907 65.9999 113.319V113.319Z" fill="black"/>
<path d="M51.1694 124.041L47.8142 129.666C47.6769 129.893 47.5356 130.151 47.595 130.409C47.6704 130.626 47.8142 130.812 48.0047 130.94C49.2911 131.987 50.7167 133.091 51.1203 134.699C51.4091 135.846 51.1203 137.075 51.3784 138.226C51.8516 140.303 53.9389 141.565 55.9135 142.364C60.3381 144.154 65.2501 144.842 69.9512 144.002C74.6523 143.163 79.1137 140.77 82.1576 137.091C83.0917 135.96 83.8905 134.723 84.7775 133.556C87.2356 130.329 90.3553 127.681 93.4504 125.059C97.4345 121.683 99.782 116.648 103.283 112.768C103.92 112.062 104.622 111.335 105.536 111.101C106.048 110.972 106.765 111.163 106.785 111.691C106.833 112.715 107.656 113.553 108.219 114.409C110.341 117.654 112.562 120.999 115.841 123.068C117.636 124.203 119.67 124.897 121.698 125.526C126.839 127.128 132.081 128.394 137.317 129.647C137.581 129.119 137.898 128.619 138.263 128.154C138.806 127.488 139.521 126.98 140.066 126.31C141.063 125.104 141.414 123.508 141.733 121.976C138.605 120.061 135.395 118.084 132.311 116.093C130.758 115.093 129.195 114.071 127.937 112.719C127.118 111.83 126.43 110.812 125.608 109.917C124.768 109.048 123.863 108.245 122.9 107.514L115.526 101.609C113.408 99.9147 111.249 98.1265 109.176 96.3731C108.01 95.3857 106.718 94.3472 105.194 94.3001C103.889 94.2591 102.689 94.9576 101.566 95.6295C94.973 99.5774 88.2816 103.348 81.4919 106.941C80.1174 107.666 78.7368 108.387 77.4258 109.221C74.8751 110.843 72.6104 112.877 70.7234 115.239C70.3773 115.671 69.9389 116.163 69.3899 116.097C69.239 116.075 69.0937 116.024 68.9618 115.948C68.1158 115.495 67.5976 114.62 67.1183 113.791C66.6389 112.961 66.1043 112.088 65.246 111.658C64.3878 111.228 63.1198 111.48 62.8146 112.392C60.7068 113.627 58.4535 114.823 56.6878 116.484C55.2929 117.797 54.1499 119.352 53.0171 120.903C52.2612 121.937 51.827 122.941 51.1694 124.041Z" fill="#464353"/>
<path opacity="0.06" d="M45.6736 89.7342C45.6736 89.7342 49.0473 91.2316 51.4665 92.9215Z" fill="black"/>
<path d="M214.638 92.8129C214.699 94.7241 214.748 96.6393 214.726 98.5484C214.713 99.5603 214.67 100.615 214.185 101.502C213.839 102.139 213.292 102.637 212.751 103.125L209.377 106.183C208.331 107.131 207.202 108.121 205.807 108.356C204.211 108.627 202.652 107.85 201.118 107.332C199.573 106.811 197.955 106.54 196.325 106.527C195.391 106.527 194.449 106.601 193.527 106.453C192.86 106.326 192.206 106.141 191.573 105.898L188.527 104.841C188.613 104.073 189.346 103.583 189.961 103.098C192.142 101.328 193.099 98.4829 193.787 95.7605C194.346 93.6352 194.745 91.4708 194.979 89.2856C195.084 88.204 195.131 87.104 194.903 86.0409C194.689 85.1833 194.387 84.35 194.002 83.5542L192.931 81.1391C192.316 79.7749 191.087 79.1685 189.836 78.3635C191.724 79.0805 194.027 79.3611 195.463 80.7827C195.74 81.0977 196.068 81.3636 196.434 81.5693C196.825 81.7557 197.269 81.7741 197.697 81.8437C199.83 82.1633 201.643 83.5029 203.404 84.7422C205.561 86.2608 207.777 87.6871 210.053 89.0213C211.078 89.6236 212.134 90.2155 212.997 91.0369C213.859 91.8584 214.535 92.9522 214.591 94.1423" fill="#464353"/>
<path opacity="0.06" d="M30.9456 89.4576C28.2601 89.9882 26.8631 93.1447 27.0208 95.8753C27.1724 98.3141 28.1741 100.623 29.8517 102.399C30.9722 103.577 32.3692 104.487 33.3811 105.759C34.8764 107.635 35.3967 110.116 36.7343 112.109C37.7053 113.555 39.0675 114.69 40.4214 115.777C43.5432 118.268 46.7667 120.626 50.0919 122.851C51.4439 123.754 52.9228 124.668 54.5492 124.633C56.0814 124.6 57.4928 123.701 58.4924 122.537C59.492 121.374 60.1311 119.96 60.7805 118.567C63.1197 113.467 65.4754 108.311 66.5938 102.813C66.9441 101.086 67.1797 99.3063 67.9622 97.727C68.5767 96.498 69.4862 95.4451 70.2973 94.3349C72.2137 91.7004 73.5589 88.6947 74.2466 85.5104C74.6932 83.4333 74.8427 81.2087 74.1094 79.2218C73.3761 77.2348 71.596 75.5121 69.4759 75.3565C67.7983 75.2336 66.1514 76.0939 65.0247 77.3455C63.8981 78.597 63.2345 80.1968 62.7818 81.8171C62.1328 84.1481 61.8834 86.5722 62.0443 88.9865C62.1754 90.9345 62.5728 92.901 62.2369 94.8265C61.9993 96.1846 61.4073 97.4525 60.8214 98.7021C59.3077 101.926 57.7693 105.191 55.4813 107.92C54.7356 108.809 53.7094 109.708 52.5684 109.499C50.9912 109.212 50.5733 107.215 49.7949 105.812C48.8404 104.091 47.0296 103.057 45.61 101.691C43.5903 99.7447 42.3797 97.135 40.9438 94.7261C39.5079 92.3172 37.65 89.939 35.0034 89.0152C32.3569 88.0914 28.8296 89.2774 28.1495 91.9976" fill="black"/>
<path opacity="0.06" d="M32.9715 91.3278C30.284 91.8583 26.8631 92.2045 27.0311 94.9391C27.181 97.3784 28.1829 99.6876 29.862 101.463C30.9825 102.643 32.3795 103.553 33.3914 104.825C34.8867 106.701 35.407 109.18 36.7446 111.175C37.7155 112.623 39.0777 113.758 40.4317 114.843C43.5535 117.336 46.777 119.693 50.1022 121.917C51.4541 122.822 52.9331 123.736 54.5595 123.701C56.0917 123.668 57.5031 122.767 58.5027 121.605C59.5023 120.444 60.1414 119.028 60.7907 117.633C63.13 112.533 65.4857 107.377 66.6041 101.879C66.9544 100.154 67.1899 98.3723 67.9724 96.795C68.5869 95.5659 69.4964 94.5131 70.3076 93.4008C72.2243 90.7672 73.5695 87.7622 74.2569 84.5783C74.7035 82.4992 74.853 80.2767 74.1197 78.2877C73.3863 76.2987 71.6063 74.5801 69.4862 74.4224C67.8085 74.2995 66.1616 75.1619 65.035 76.4114C63.9084 77.6609 63.2447 79.2628 62.792 80.8851C62.1429 83.2161 61.8936 85.6402 62.0546 88.0545C62.1857 90.0046 62.5831 91.971 62.2471 93.8945C62.0095 95.2546 61.4175 96.5226 60.8317 97.7721C59.3179 100.996 57.7796 104.259 55.4915 106.99C54.7459 107.879 53.7197 108.776 52.5787 108.569C51.0014 108.28 50.5836 106.283 49.8052 104.882C48.8506 103.161 47.0398 102.127 45.6203 100.761C43.6006 98.8168 42.39 96.205 40.9541 93.7961C39.5181 91.3872 37.6602 89.0111 35.0137 88.0852C32.3672 87.1593 35.6815 93.0894 34.9994 95.8097" fill="black"/>
<path d="M30.9456 88.9885C28.2601 89.5191 26.8631 92.6757 27.0208 95.4062C27.1719 97.8458 28.1737 100.155 29.8517 101.932C30.9722 103.11 32.3692 104.02 33.3811 105.292C34.8764 107.168 35.3967 109.649 36.7343 111.642C37.7053 113.09 39.0675 114.225 40.4214 115.313C43.5432 117.803 46.7667 120.16 50.0919 122.384C51.4439 123.289 52.9228 124.203 54.5492 124.168C56.0814 124.135 57.4928 123.236 58.4924 122.072C59.492 120.909 60.1311 119.495 60.7805 118.102C63.1197 113.002 65.4754 107.846 66.5938 102.346C66.9441 100.621 67.1797 98.8393 67.9622 97.262C68.5767 96.033 69.4862 94.9801 70.2973 93.8678C72.214 91.2343 73.5592 88.2292 74.2466 85.0454C74.6932 82.9663 74.8427 80.7437 74.1094 78.7548C73.3761 76.7658 71.596 75.0472 69.4759 74.8915C67.7983 74.7665 66.1514 75.6289 65.0247 76.8805C63.8981 78.132 63.2345 79.7318 62.7818 81.3521C62.1328 83.6831 61.8834 86.1072 62.0443 88.5215C62.1754 90.4695 62.5728 92.436 62.2369 94.3594C61.9993 95.7196 61.4073 96.9875 60.8214 98.2371C59.3077 101.461 57.7693 104.726 55.4813 107.455C54.7356 108.344 53.7094 109.241 52.5684 109.034C50.9912 108.745 50.5733 106.75 49.7949 105.347C48.8404 103.624 47.0296 102.59 45.61 101.226C43.5903 99.2797 42.3797 96.67 40.9438 94.2611C39.5079 91.8522 37.65 89.4761 35.0034 88.5522C32.3569 87.6284 28.8296 88.8144 28.1495 91.5347" fill="#FBBEBE"/>
<g opacity="0.06">
<path opacity="0.06" d="M20.681 72.6259C19.8298 71.2202 19.1144 69.7366 18.5446 68.1953L18.4749 67.9904C18.0426 67.5264 17.6791 67.0029 17.3954 66.4357C16.9563 65.4695 16.7179 64.4242 16.6949 63.3631C16.6949 63.3242 16.6949 63.2853 16.6949 63.2463C16.5483 63.5741 16.4404 63.9178 16.3733 64.2705C16.1684 65.4258 16.5064 66.6057 16.912 67.7077C17.4822 69.249 18.1976 70.7325 19.0485 72.1384C20.3205 74.2647 21.9449 76.3131 22.1969 78.7527C22.5758 82.4029 19.8228 85.6169 19.1427 89.2241C18.6224 91.9792 19.282 95.0579 17.8092 97.4423C17.2205 98.3413 16.43 99.0904 15.5006 99.63C14.9177 100.001 14.2796 100.278 13.61 100.449C13.4879 100.594 13.3565 100.731 13.2167 100.859C14.5174 101.31 15.9656 100.824 17.1373 100.103C18.0663 99.5622 18.8567 98.8125 19.4459 97.9134C20.9187 95.5291 20.2652 92.4503 20.7773 89.6952C21.4594 86.0901 24.2125 82.8741 23.8335 79.2238C23.5795 76.7699 21.9572 74.7235 20.681 72.6259Z" fill="black"/>
<path opacity="0.06" d="M44.3195 54.6C43.7931 53.3813 42.6808 52.5168 41.5378 51.8388C40.0889 50.9694 38.5121 50.3334 36.8654 49.9543C37.9222 50.3232 38.9392 50.7974 39.9011 51.3697C41.0441 52.0498 42.1544 52.9122 42.6849 54.133C43.2154 55.3539 42.9512 57.0008 41.8123 57.6808C41.0093 58.1622 40.0076 58.0762 39.0715 58.0557C38.2625 58.0372 37.4533 58.0783 36.6503 58.1786C36.3604 58.1995 36.0769 58.2746 35.8146 58.3998C35.4728 58.6213 35.2035 58.9382 35.0403 59.3114C34.7109 59.9413 34.4893 60.6219 34.3848 61.3249C34.2701 62.1115 34.2803 62.9739 33.7887 63.5987C33.1209 64.4487 32.0762 64.3197 31.1258 64.4877C30.3004 64.6461 29.5093 64.9484 28.7886 65.3808C27.2195 66.3292 26.099 68.0621 26.0273 69.9118C26.0027 70.5714 26.0929 71.2453 25.9147 71.8803C25.7997 72.2508 25.6193 72.5977 25.3821 72.9045C25.745 73.2925 26.0625 73.7207 26.3284 74.1807C26.8303 73.6338 27.3526 73.0602 27.5575 72.3474C27.7377 71.7124 27.6456 71.0364 27.6722 70.3768C27.7439 68.5332 28.8644 66.7962 30.4334 65.8457C31.1536 65.4126 31.9449 65.1109 32.7706 64.9547C33.717 64.7847 34.7617 64.9137 35.4336 64.0636C35.9252 63.4491 35.9129 62.5765 36.0297 61.7899C36.1335 61.087 36.3544 60.4063 36.6831 59.7763C36.8474 59.4066 37.1166 59.0932 37.4574 58.8751C37.7191 58.7481 38.0029 58.6729 38.2931 58.6538C39.0961 58.5538 39.9053 58.5121 40.7143 58.5289C41.6505 58.5514 42.6521 58.6354 43.4551 58.154C44.5858 57.4678 44.846 55.8291 44.3195 54.6Z" fill="black"/>
</g>
<path opacity="0.06" d="M30.9067 74.1725C30.9067 74.1725 33.3259 76.2537 37.9204 74.9919C37.9204 74.9878 35.0752 76.1083 30.9067 74.1725Z" fill="black"/>
<path opacity="0.06" d="M160.654 39.0629C160.659 39.3793 160.574 39.6904 160.409 39.9601C160.277 40.1167 160.113 40.242 159.927 40.3268C159.149 40.7111 158.269 40.8406 157.413 40.6968C156.557 40.5531 155.769 40.1434 155.159 39.5259C154.724 39.067 154.403 38.5017 153.975 38.049C153.546 37.5963 152.95 37.201 152.336 37.2501C151.813 37.2911 151.357 37.6229 150.998 38.006C150.534 38.509 150.193 39.1126 150.001 39.7696C149.867 40.2367 149.796 40.7631 149.413 41.0724C149.03 41.3817 148.554 41.3612 148.096 41.3449C147.504 41.3244 146.889 41.2977 146.369 41.0171C145.384 40.4886 145.052 39.2719 144.687 38.217C144.073 36.439 142.692 33.0796 140.543 32.7211C139.519 32.5511 138.271 33.0939 137.471 33.6757C136.26 34.5544 135.367 35.1239 133.8 35.1095C133.431 35.1166 133.063 35.0584 132.714 34.9375C131.813 34.5831 131.332 33.604 131.186 32.633C131.13 33.078 131.119 33.5274 131.151 33.9747C131.237 35.0358 131.721 36.1829 132.714 36.5741C133.063 36.695 133.431 36.7533 133.8 36.7462C135.367 36.7708 136.258 36.2013 137.471 35.3226C138.276 34.7408 139.519 34.196 140.543 34.368C142.684 34.7162 144.077 38.0756 144.679 39.8516C145.044 40.9086 145.375 42.1253 146.361 42.6538C146.881 42.9324 147.495 42.961 148.087 42.9815C148.546 42.9979 149.05 43 149.405 42.7091C149.759 42.4182 149.859 41.8713 149.992 41.4063C150.184 40.7491 150.525 40.1454 150.99 39.6426C151.348 39.2596 151.809 38.9278 152.328 38.8868C152.959 38.8376 153.557 39.2207 153.966 39.6857C154.376 40.1506 154.716 40.7099 155.15 41.1626C155.76 41.78 156.549 42.1897 157.405 42.3335C158.261 42.4773 159.141 42.3478 159.919 41.9635C160.104 41.8779 160.269 41.7528 160.4 41.5968C160.566 41.3264 160.651 41.0146 160.646 40.6976C160.806 38.9722 160.875 37.2395 160.851 35.5069C160.835 36.6929 160.747 37.879 160.654 39.0629Z" fill="black"/>
<path d="M18.4585 126.448C18.4585 126.448 18.7842 126.085 18.1717 125.942V125.346H18.5405C18.5397 124.625 18.2916 123.927 17.8379 123.368C17.3841 122.809 16.7521 122.422 16.0476 122.273V121.55H16.1438V120.61H13.7738V121.55H13.8414V122.281C13.1435 122.438 12.5197 122.827 12.0728 123.386C11.626 123.944 11.3828 124.638 11.3834 125.354H11.7091V125.925C11.7091 125.925 10.9327 126.292 11.7091 126.949C12.4854 127.607 12.3645 128.082 12.3645 128.082C12.3645 128.082 12.0388 129.311 11.3854 129.471V140.866C11.3851 141.199 11.4504 141.528 11.5775 141.836C11.7047 142.143 11.8911 142.422 12.1262 142.658C12.3614 142.893 12.6406 143.08 12.9479 143.207C13.2552 143.335 13.5846 143.4 13.9172 143.4H15.9185C16.5905 143.4 17.235 143.133 17.7102 142.658C18.1854 142.183 18.4524 141.538 18.4524 140.866V129.471C18.4524 129.471 17.3073 128.613 17.5122 128.082C17.787 127.515 18.1033 126.968 18.4585 126.448V126.448Z" fill="#464353"/>
</g>
<defs>
<linearGradient id="paint0_linear" x1="113.75" y1="145.41" x2="113.75" y2="20.273" gradientUnits="userSpaceOnUse">
<stop stop-color="#808080" stop-opacity="0.25"/>
<stop offset="0.54" stop-color="#808080" stop-opacity="0.12"/>
<stop offset="1" stop-color="#808080" stop-opacity="0.1"/>
</linearGradient>
<clipPath id="clip0">
<rect width="236" height="157.952" fill="white" transform="translate(0.0618896)"/>
</clipPath>
</defs>
</svg>
